<svg width="24" height="24" viewBox="0 0 24 24" fill="none" xmlns="http://www.w3.org/2000/svg">
<path d="M12.8806 6.74147L12.8806 6.74148L9.84225 15.8566L9.74756 15.825L9.84225 15.8566C9.73817 16.1687 9.44758 16.3659 9.13598 16.3658L12.8806 6.74147ZM12.8806 6.74147C13.0106 6.35139 12.7998 5.92974 12.4097 5.7997L12.4097 5.7997M12.8806 6.74147L12.4097 5.7997M12.4097 5.7997C12.0196 5.6697 11.5979 5.8805 11.4679 6.27058L11.4679 6.27059M12.4097 5.7997L11.4679 6.27059M11.4679 6.27059L8.42958 15.3857L8.42958 15.3857M11.4679 6.27059L8.42958 15.3857M8.42958 15.3857C8.29958 15.7758 8.51038 16.1974 8.90047 16.3275L8.90049 16.3275M8.42958 15.3857L8.90049 16.3275M8.90049 16.3275C8.9784 16.3534 9.05783 16.3658 9.13596 16.3658L8.90049 16.3275Z" fill="#527BA9" stroke="#527BA9" stroke-width="0.2"/>
<path d="M14.3003 13.097C15.4217 13.097 16.3339 12.1849 16.3339 11.0634C16.3339 9.94203 15.4217 9.02985 14.3003 9.02985C13.1789 9.02985 12.2667 9.94203 12.2667 11.0634C12.2667 12.1849 13.1789 13.097 14.3003 13.097ZM14.3003 10.5189C14.6005 10.5189 14.8448 10.7633 14.8448 11.0634C14.8448 11.3636 14.6005 11.608 14.3003 11.608C14.0001 11.608 13.7558 11.3636 13.7558 11.0634C13.7558 10.7633 14.0001 10.5189 14.3003 10.5189Z" fill="#527BA9" stroke="#527BA9" stroke-width="0.2"/>
<path d="M7.0083 9.02985C5.88689 9.02985 4.97471 9.94203 4.97471 11.0634C4.97471 12.1849 5.88689 13.097 7.0083 13.097C8.12971 13.097 9.04189 12.1849 9.04189 11.0634C9.04189 9.94204 8.12975 9.02985 7.0083 9.02985ZM7.0083 11.608C6.70813 11.608 6.46377 11.3636 6.46377 11.0634C6.46377 10.7633 6.70813 10.5189 7.0083 10.5189C7.30846 10.5189 7.55283 10.7633 7.55283 11.0634C7.55283 11.3636 7.3085 11.608 7.0083 11.608Z" fill="#527BA9" stroke="#527BA9" stroke-width="0.2"/>
<path d="M19.5467 1.11803L19.5466 1.11804L18.2501 2.41459L16.9536 1.11805C16.9536 1.11805 16.9536 1.11804 16.9536 1.11804C16.7878 0.952239 16.5538 0.87459 16.3219 0.907423L16.3218 0.90744L9.94126 1.81894C9.78178 1.84172 9.63401 1.91563 9.52011 2.02954L1.62039 9.92925C0.65987 10.8897 0.65987 12.4524 1.62039 13.4129L8.30473 20.0973C8.43337 20.2259 8.573 20.3369 8.7203 20.4309V20.6367C8.7203 21.995 9.82524 23.1 11.1836 23.1H20.6367C21.995 23.1 23.1 21.995 23.1 20.6367V9.37889C23.1 9.21782 23.0477 9.06103 22.9511 8.93218L20.7284 5.96854L20.8102 5.39583C20.8433 5.16385 20.7654 4.92977 20.5996 4.76407C20.5996 4.76406 20.5996 4.76406 20.5996 4.76406L19.3031 3.46751L20.5996 2.17096C20.8903 1.88024 20.8903 1.4088 20.5996 1.11804C20.3088 0.827317 19.8374 0.827325 19.5467 1.11803ZM2.67331 12.36C2.2935 11.9801 2.2935 11.362 2.67331 10.9822L10.3975 3.25796L16.1638 2.43422L17.1972 3.46756L16.4271 4.23763L16.042 3.85257C15.7513 3.56185 15.2799 3.56186 14.9891 3.85257C14.6984 4.14329 14.6984 4.61473 14.9891 4.90549L16.8122 6.72852C16.9575 6.87388 17.1482 6.94662 17.3386 6.94662C17.5289 6.94662 17.7197 6.87389 17.865 6.72853C18.1558 6.43781 18.1558 5.96637 17.865 5.67561L17.48 5.29055L18.25 4.52047L19.2834 5.55381L18.4596 11.3201L10.7354 19.0443C10.5513 19.2285 10.307 19.3297 10.0465 19.3297C9.78612 19.3297 9.5418 19.2284 9.35764 19.0443L2.67331 12.36ZM21.6109 20.6367C21.6109 21.1738 21.1738 21.6109 20.6367 21.6109H11.1836C10.7059 21.6109 10.3074 21.265 10.2252 20.8105C10.7949 20.7695 11.3534 20.5322 11.7883 20.0973L19.688 12.1975C19.8019 12.0836 19.8758 11.9359 19.8986 11.7764L20.4305 8.05323L21.6109 9.62707V20.6367Z" fill="#527BA9" stroke="#527BA9" stroke-width="0.2"/>
</svg>
