<svg width="21" height="22" viewBox="0 0 21 22" fill="none" xmlns="http://www.w3.org/2000/svg">
<path d="M20.5156 8.94882L11.2068 0.419177C10.9042 0.141885 10.5056 -0.00818207 10.0945 0.000344421C9.68341 0.00887092 9.29151 0.175331 9.00075 0.46493L0.439359 8.99192L0 9.42946V22H8.25V14.1567H12.75V22H21V9.39272L20.5156 8.94882ZM10.1268 1.49399C10.14 1.49399 10.1318 1.49684 10.1262 1.50239C10.1203 1.49684 10.1136 1.49399 10.1268 1.49399ZM19.5 20.506H14.25V14.1567C14.25 13.7605 14.092 13.3805 13.8107 13.1003C13.5294 12.8201 13.1478 12.6627 12.75 12.6627H8.25C7.85218 12.6627 7.47064 12.8201 7.18934 13.1003C6.90804 13.3805 6.75 13.7605 6.75 14.1567V20.506H1.5V10.0483L10.1268 1.5213C10.1274 1.52074 10.1274 1.52023 10.1279 1.51967L19.5 10.0483V20.506Z" fill="#8E8E8E"/>
</svg>
