<?xml version="1.0" encoding="utf-8"?>
<!-- Generator: Adobe Illustrator 24.2.0, SVG Export Plug-In . SVG Version: 6.00 Build 0)  -->
<svg version="1.1" id="Layer_1" xmlns="http://www.w3.org/2000/svg" xmlns:xlink="http://www.w3.org/1999/xlink" x="0px" y="0px"
	 viewBox="0 0 22 22" style="enable-background:new 0 0 22 22;" xml:space="preserve">
<style type="text/css">
	.st0{clip-path:url(#SVGID_2_);}
	.st1{clip-path:url(#SVGID_4_);fill:#8E8E8E;}
	.st2{clip-path:url(#SVGID_4_);fill:none;stroke:#8E8E8E;stroke-width:0.3;}
	.st3{clip-path:url(#SVGID_4_);fill:none;stroke:#8E8E8E;}
	.st4{clip-path:url(#SVGID_4_);fill:#8F908F;}
	.st5{clip-path:url(#SVGID_4_);fill:none;stroke:#8F908F;stroke-miterlimit:10;}
	.st6{fill:none;stroke:#527CAA;stroke-width:2;}
	.st7{clip-path:url(#SVGID_6_);fill:none;stroke:#527CAA;stroke-width:1.036;stroke-miterlimit:10;}
	.st8{clip-path:url(#SVGID_6_);fill:none;stroke:#527CAA;stroke-width:1.3814;stroke-miterlimit:10;}
	.st9{fill:none;}
	.st10{clip-path:url(#SVGID_8_);fill:#8E8E8E;}
	.st11{fill:none;stroke:#8E8E8E;stroke-miterlimit:10;}
	.st12{fill:none;stroke:#8E8E8E;stroke-width:0.7856;stroke-miterlimit:10;}
	.st13{fill:none;stroke:#8E8E8E;stroke-width:0.8594;stroke-miterlimit:10;}
	.st14{fill:#222222;}
	.st15{fill:none;stroke:#527CAA;}
	.st16{fill:#527CAA;}
	.st17{fill:none;stroke:#222222;stroke-width:1.1142;stroke-miterlimit:10;}
	.st18{clip-path:url(#SVGID_10_);fill:#527CAA;}
	.st19{fill:none;stroke:#527CAA;stroke-width:0.9215;stroke-miterlimit:10;}
	.st20{fill:none;stroke:#527CAA;stroke-width:0.724;stroke-miterlimit:10;}
	.st21{fill:none;stroke:#527CAA;stroke-width:0.7919;stroke-miterlimit:10;}
</style>
<g>
	<g>
		<defs>
			<rect id="SVGID_1_" width="22" height="22"/>
		</defs>
		<clipPath id="SVGID_2_">
			<use xlink:href="#SVGID_1_"  style="overflow:visible;"/>
		</clipPath>
		<g class="st0">
			<defs>
				<rect id="SVGID_3_" width="22" height="22"/>
			</defs>
			<clipPath id="SVGID_4_">
				<use xlink:href="#SVGID_3_"  style="overflow:visible;"/>
			</clipPath>
			<path class="st1" d="M12.5,12.9c-0.9,0.4-2,0.4-2.9,0l-0.1,0l-0.2,0.6l0.1,0c1.1,0.4,2.4,0.4,3.4,0l0.1,0L12.5,12.9L12.5,12.9z"
				/>
			<path class="st2" d="M12.5,12.9c-0.9,0.4-2,0.4-2.9,0l-0.1,0l-0.2,0.6l0.1,0c1.1,0.4,2.4,0.4,3.4,0l0.1,0L12.5,12.9L12.5,12.9z"
				/>
			<rect x="10.7" y="7.8" class="st1" width="0.7" height="3.8"/>
			<rect x="10.7" y="7.8" class="st2" width="0.7" height="3.8"/>
			<path class="st1" d="M20.4,0.6v6.6c0,0.1,0,0.2,0,0.2l-1.6,4.8l-2.6,4c0,0.1-0.1,0.1-0.2,0.1c-0.2,0-0.3-0.1-0.3-0.2
				c0-0.1,0-0.1,0-0.2c0.6-1.1,1.7-3.1,1.7-3.1c0,0,0-0.1,0.1-0.1l0.3-1l1.2-3.7l-1.2-0.4l-1.2,3.7l0,0.1c-0.1,0.2-0.2,0.2-0.4,0.2
				c-0.1-0.1-0.2-0.2-0.2-0.4l0.5-2.7l0-1.1c0-1.4,0.6-2.7,1.5-3.7c0.1-0.1,0.2-0.3,0.2-0.4V0.6h-1.3v2.4c-0.1,0.1-0.2,0.3-0.4,0.4
				c-1-1.4-2.4-2.3-4-2.7C10.8,0.4,9,0.7,7.4,1.7C6.6,2.1,6,2.8,5.4,3.5C5.3,3.4,5.2,3.2,5.1,3.1V0.6H3.8v2.7c0,0.2,0.1,0.3,0.2,0.4
				c1,1,1.5,2.3,1.5,3.7v1l0.5,2.8c0,0.2-0.1,0.3-0.2,0.4c-0.1,0-0.2,0-0.2,0c-0.1,0-0.1-0.1-0.2-0.2L4.3,7.7L3.1,8.1l1.2,3.7l0.3,1
				c0,0,0,0.1,0.1,0.1c0,0,1.1,2,1.7,3.1c0.1,0.1,0,0.3-0.1,0.4c-0.1,0-0.1,0.1-0.2,0c-0.1,0-0.1-0.1-0.2-0.1l-2.5-3.9L1.7,7.5
				c0-0.1,0-0.2,0-0.2V0.6H0.4v6.6c0,0.2,0,0.4,0.1,0.6l1.7,5c0,0,0,0.1,0.1,0.1l2.6,4c0.2,0.4,0.6,0.6,1,0.7c0.1,0,0.2,0,0.3,0
				c0.3,0,0.5-0.1,0.7-0.2c0.2,0.2,0.3,0.3,0.5,0.5v1.2c0,0.7-0.1,1.3-0.3,1.9c-0.1,0.2,0,0.3,0,0.5c0.1,0.1,0.2,0.3,0.4,0.3
				c0.1,0,0.1,0,0.2,0h6.9c0.3,0,0.6-0.3,0.6-0.6c0-0.1,0-0.1,0-0.2c-0.2-0.6-0.3-1.3-0.3-1.9v-1.2c0.2-0.1,0.3-0.3,0.5-0.4
				c0.3,0.2,0.6,0.2,1,0.2c0.4-0.1,0.7-0.3,1-0.6c0,0,0-0.1,0.1-0.1l2.6-4c0,0,0.1-0.1,0.1-0.1l1.7-5c0.1-0.2,0.1-0.4,0.1-0.6V0.6
				H20.4z M8.4,20.6c0.1-0.5,0.2-1,0.2-1.5v-0.4c0,0,0.1,0,0.1,0.1c1.5,0.7,3.2,0.7,4.7,0c0,0,0.1,0,0.1-0.1v0.4
				c0,0.5,0.1,1,0.2,1.5H8.4z M14.6,15.4c-0.2,0.3-0.2,0.7-0.2,1c0,0-0.1,0.1-0.1,0.1v0c-0.4,0.5-0.9,0.8-1.5,1.1
				c-1.2,0.5-2.5,0.5-3.7,0c-0.6-0.3-1.1-0.6-1.5-1.1c0,0,0-0.1-0.1-0.1c0.1-0.3,0-0.7-0.2-1c-0.4-0.7-1-1.8-1.4-2.5
				c0.6-0.1,1.2-0.6,1.3-1.3c0-0.2,0-0.4,0-0.6l-0.2-0.8c0.2,0,0.4,0,0.6,0c0.6,0,1.1,0,1.7-0.1l0.3,0L9.4,8.8l-0.3,0
				C8.4,9,7.7,9,6.9,9L6.8,8.5V8c0.7-0.3,1.5-0.4,2.3-0.2l0.3,0.1l0.3-1.2L9.4,6.7C8.5,6.4,7.6,6.4,6.8,6.7c0-0.4,0-0.9,0-1.3
				C6.7,5.1,6.5,4.7,6.5,4.7L6,3.9c1.1-2,4-2.6,4-2.6c2.8-0.6,5.8,1.6,6.3,2.5c-0.4,0.4-0.8,1.8-0.8,1.8c-0.1,0.3-0.2,0.7-0.2,1.1
				c-0.8-0.3-1.8-0.3-2.7-0.1l-0.3,0.1l0.3,1.2l0.3-0.1c0.8-0.2,1.6-0.1,2.3,0.2l0,0.4L15.1,9c-0.6,0-1.3,0-1.9-0.1l-0.3,0l-0.2,1.2
				l0.3,0c0.5,0.1,1.1,0.1,1.6,0.1c0.1,0,0.2,0,0.2,0L14.7,11c-0.1,0.4,0,0.8,0.2,1.2c0.2,0.4,0.6,0.6,1,0.7c0,0,0.1,0,0.1,0
				C15.6,13.6,15,14.7,14.6,15.4"/>
			<path class="st3" d="M6,6.5c-0.3,0,2.7-4.6,7.6-5.2"/>
			<path class="st4" d="M10.5,2.4c1.4,0,5.6,3.4,5.3,4.3"/>
			<path class="st5" d="M10.5,2.4c1.4,0,5.6,3.4,5.3,4.3"/>
			<path class="st3" d="M5.3,3.8c0,0,1.3-3.2,5.6-3.2c0,0,4.6-0.3,6,2.9"/>
		</g>
	</g>
</g>
</svg>
