<svg width="22" height="22" viewBox="0 0 22 22" fill="none" xmlns="http://www.w3.org/2000/svg">
<path d="M21 7.09999C21 6.89999 20.9 6.79999 20.8 6.69999C20.7 6.59999 20.5 6.49999 20.4 6.49999H13.5C13.3 6.49999 13.2 6.59999 13.1 6.69999C13 6.79999 12.9 6.99999 12.9 7.09999V8.49999L13.5 13.1C13 13 13 12.9 12.9 12.9C12.9 12.8 13 12.7 12.9 12.6C12.9 12.5 12.9 12.4 12.8 12.3C12.7 12.2 12.7 12.2 12.6 12.1C12.5 12.1 12.4 12 12.3 12C11.8 12 11.4 12.1 10.9 12.2L11.1 10.6V10.5C11.1 9.59999 10.9 8.79999 10.4 7.99999C10 7.29999 9.4 6.69999 8.7 6.29999V6.19999L8.5 4.19999C8.5 4.09999 8.4 3.89999 8.3 3.79999C8.2 3.79999 8 3.69999 7.9 3.69999H7.8V2.79999H10C10.2 2.79999 10.3 2.69999 10.4 2.59999C10.5 2.49999 10.6 2.29999 10.6 2.19999V0.899994C10.6 0.799994 10.6 0.699994 10.6 0.699994C10.6 0.599994 10.5 0.599994 10.5 0.499994C10.4 0.399994 10.4 0.399994 10.3 0.399994C10.2 0.399994 10.1 0.399994 10.1 0.399994L4.7 0.599994C4.6 0.599994 4.5 0.699994 4.4 0.699994C4.3 0.799994 4.2 0.899994 4.2 0.999994L3.9 1.99999C3.9 2.09999 3.9 2.19999 3.9 2.29999C3.9 2.39999 3.9 2.49999 4 2.59999C4 2.69999 4.1 2.69999 4.1 2.79999C4.2 2.79999 4.3 2.89999 4.4 2.89999H4.5V3.79999H4.4C4.3 3.69999 4.1 3.79999 4 3.89999C3.9 3.99999 3.9 4.09999 3.8 4.19999L3.5 6.29999V6.39999C2.8 6.79999 2.2 7.39999 1.8 8.09999C1.3 8.79999 1 9.69999 1 10.6L2.3 20.5C2.3 20.8 2.5 21.1 2.7 21.3C2.9 21.5 3.2 21.6 3.5 21.6H18.2C18.5 21.6 18.9 21.5 19.1 21.2C19.3 21 19.5 20.6 19.5 20.3V19L21 8.59999V7.09999ZM9.4 1.49999V1.69999H6.8L9.4 1.49999ZM6.6 3.69999H5.7V2.79999H6.6V3.69999V3.69999ZM18.4 19.5V20.3V20.4C18.4 20.4 18.4 20.4 18.3 20.4H16.8C16.8 20.4 16.8 20.4 16.8 20.3V19.5H18.4ZM16.4 15.9C16.2 15.7 16 15.6 15.7 15.6V14.8V14.7C15.7 14.4 15.6 14.2 15.5 14C15.4 13.8 15.2 13.6 15.1 13.5C15 13.4 14.8 13.3 14.7 13.3L14.2 9.19999H19.8L18.6 18.4H16.9V16.9C16.8 16.5 16.7 16.1 16.4 15.9ZM10.2 14.2C10.7 13.8 11.1 13.4 11.9 13.3C11.9 13.4 12 13.5 12 13.5C12.2 13.8 12.5 14 13 14.1H10.2V14.2ZM7.1 16.8L15.6 16.7L15.7 16.8V20.4L15.6 20.5H7.1L7 20.4V16.8H7.1ZM8.1 15.3H14.6V15.5H8.1V15.3ZM9.7 13C9.5 13.1 9.4 13.2 9.3 13.4C8.8 13.9 8.3 14.2 7.5 14.2C7.3 14.2 7.2 14.3 7.1 14.4C7 14.5 6.9 14.7 6.9 14.8V15.6C6.6 15.6 6.4 15.8 6.2 15.9C6 16.1 5.8 16.4 5.8 16.8V20.4C5.8 20.4 5.8 20.4 5.8 20.5H3.6C3.6 20.5 3.6 20.5 3.5 20.5C3.5 20.5 3.5 20.5 3.5 20.4L2.2 10.7C2.2 9.69999 2.6 8.89999 3.3 8.19999C4 7.39999 4.8 6.99999 5.8 6.99999H6.5C7.4 6.99999 8.3 7.39999 9 7.99999C9.7 8.69999 10 9.59999 10.1 10.5L9.7 13ZM4.8 5.79999L5 4.89999H7.5L7.7 5.79999H4.8ZM19.8 7.89999H14V7.69999H19.8V7.89999Z" fill="#527BA9"/>
<path d="M3.2998 10.4H8.9998H3.2998Z" stroke="#527BA9" stroke-miterlimit="10"/>
<path d="M8.3999 18.4H14.0999H8.3999Z" stroke="#527BA9" stroke-miterlimit="10"/>
<path d="M15.2002 10.6H18.7002H15.2002Z" stroke="#527BA9" stroke-width="0.7856" stroke-miterlimit="10"/>
<path d="M4 12H8.2H4Z" stroke="#527BA9" stroke-width="0.8594" stroke-miterlimit="10"/>
</svg>
