<?xml version="1.0" encoding="utf-8"?>
<!-- Generator: Adobe Illustrator 24.2.0, SVG Export Plug-In . SVG Version: 6.00 Build 0)  -->
<svg version="1.1" id="Layer_1" xmlns="http://www.w3.org/2000/svg" xmlns:xlink="http://www.w3.org/1999/xlink" x="0px" y="0px"
	 viewBox="0 0 22 22" style="enable-background:new 0 0 22 22;" xml:space="preserve">
<style type="text/css">
	.st0{clip-path:url(#SVGID_2_);}
	.st1{clip-path:url(#SVGID_4_);fill:#8E8E8E;}
	.st2{clip-path:url(#SVGID_4_);fill:none;stroke:#8E8E8E;stroke-width:0.3;}
	.st3{clip-path:url(#SVGID_4_);fill:none;stroke:#8E8E8E;}
	.st4{clip-path:url(#SVGID_4_);fill:#8F908F;}
	.st5{clip-path:url(#SVGID_4_);fill:none;stroke:#8F908F;stroke-miterlimit:10;}
	.st6{fill:none;stroke:#527CAA;stroke-width:2;}
	.st7{clip-path:url(#SVGID_6_);fill:none;stroke:#527CAA;stroke-width:1.036;stroke-miterlimit:10;}
	.st8{clip-path:url(#SVGID_6_);fill:none;stroke:#527CAA;stroke-width:1.3814;stroke-miterlimit:10;}
	.st9{fill:none;}
	.st10{clip-path:url(#SVGID_8_);fill:#8E8E8E;}
	.st11{fill:none;stroke:#8E8E8E;stroke-miterlimit:10;}
	.st12{fill:none;stroke:#8E8E8E;stroke-width:0.7856;stroke-miterlimit:10;}
	.st13{fill:none;stroke:#8E8E8E;stroke-width:0.8594;stroke-miterlimit:10;}
	.st14{fill:#222222;}
	.st15{fill:none;stroke:#527CAA;}
	.st16{fill:#527CAA;}
	.st17{fill:none;stroke:#222222;stroke-width:1.1142;stroke-miterlimit:10;}
	.st18{clip-path:url(#SVGID_10_);fill:#527CAA;}
	.st19{fill:none;stroke:#527CAA;stroke-width:0.9215;stroke-miterlimit:10;}
	.st20{fill:none;stroke:#527CAA;stroke-width:0.724;stroke-miterlimit:10;}
	.st21{fill:none;stroke:#527CAA;stroke-width:0.7919;stroke-miterlimit:10;}
</style>
<g>
	<g>
		<defs>
			<rect id="SVGID_7_" width="22" height="22"/>
		</defs>
		<clipPath id="SVGID_2_">
			<use xlink:href="#SVGID_7_"  style="overflow:visible;"/>
		</clipPath>
		<path style="clip-path:url(#SVGID_2_);fill:#8E8E8E;" d="M21,7.1c0-0.2-0.1-0.3-0.2-0.4c-0.1-0.1-0.3-0.2-0.4-0.2h-6.9
			c-0.2,0-0.3,0.1-0.4,0.2c-0.1,0.1-0.2,0.3-0.2,0.4v1.4l0.6,4.6C13,13,13,12.9,12.9,12.9c0-0.1,0.1-0.2,0-0.3c0-0.1,0-0.2-0.1-0.3
			c-0.1-0.1-0.1-0.1-0.2-0.2c-0.1,0-0.2-0.1-0.3-0.1c-0.5,0-0.9,0.1-1.4,0.2l0.2-1.6l0-0.1c0-0.9-0.2-1.7-0.7-2.5
			c-0.4-0.7-1-1.3-1.7-1.7c0,0,0-0.1,0-0.1L8.5,4.2c0-0.1-0.1-0.3-0.2-0.4C8.2,3.8,8,3.7,7.9,3.7H7.8V2.8H10c0.2,0,0.3-0.1,0.4-0.2
			c0.1-0.1,0.2-0.3,0.2-0.4V0.9c0-0.1,0-0.2,0-0.2c0-0.1-0.1-0.1-0.1-0.2c-0.1-0.1-0.1-0.1-0.2-0.1c-0.1,0-0.2,0-0.2,0L4.7,0.6
			c-0.1,0-0.2,0.1-0.3,0.1C4.3,0.8,4.2,0.9,4.2,1l-0.3,1c0,0.1,0,0.2,0,0.3c0,0.1,0,0.2,0.1,0.3C4,2.7,4.1,2.7,4.1,2.8
			c0.1,0,0.2,0.1,0.3,0.1h0.1v0.9H4.4C4.3,3.7,4.1,3.8,4,3.9C3.9,4,3.9,4.1,3.8,4.2L3.5,6.3c0,0,0,0.1,0,0.1c-0.7,0.4-1.3,1-1.7,1.7
			C1.3,8.8,1,9.7,1,10.6l1.3,9.9c0,0.3,0.2,0.6,0.4,0.8c0.2,0.2,0.5,0.3,0.8,0.3h14.7c0.3,0,0.7-0.1,0.9-0.4
			c0.2-0.2,0.4-0.6,0.4-0.9l0-1.3L21,8.6L21,7.1z M9.4,1.5v0.2H6.8L9.4,1.5z M6.6,3.7H5.7V2.8h0.9V3.7z M18.4,19.5v0.8
			c0,0,0,0.1,0,0.1c0,0,0,0-0.1,0h-1.5c0,0,0,0,0-0.1v-0.8H18.4z M16.4,15.9c-0.2-0.2-0.4-0.3-0.7-0.3v-0.8l0-0.1
			c0-0.3-0.1-0.5-0.2-0.7c-0.1-0.2-0.3-0.4-0.4-0.5c-0.1-0.1-0.3-0.2-0.4-0.2l-0.5-4.1h5.6l-1.2,9.2h-1.7v-1.5
			C16.8,16.5,16.7,16.1,16.4,15.9 M10.2,14.2c0.5-0.4,0.9-0.8,1.7-0.9c0,0.1,0.1,0.2,0.1,0.2c0.2,0.3,0.5,0.5,1,0.6H10.2z M7.1,16.8
			L7.1,16.8l8.5-0.1l0.1,0.1v3.6l-0.1,0.1H7.1l-0.1-0.1V16.8z M8.1,15.3h6.5v0.2H8.1V15.3z M9.7,13c-0.2,0.1-0.3,0.2-0.4,0.4
			c-0.5,0.5-1,0.8-1.8,0.8c-0.2,0-0.3,0.1-0.4,0.2c-0.1,0.1-0.2,0.3-0.2,0.4v0.8c-0.3,0-0.5,0.2-0.7,0.3c-0.2,0.2-0.4,0.5-0.4,0.9
			v3.6c0,0,0,0,0,0.1H3.6c0,0,0,0-0.1,0c0,0,0,0,0-0.1l-1.3-9.7c0-1,0.4-1.8,1.1-2.5C4,7.4,4.8,7,5.8,7h0.7C7.4,7,8.3,7.4,9,8
			c0.7,0.7,1,1.6,1.1,2.5L9.7,13z M4.8,5.8l0.2-0.9h2.5l0.2,0.9H4.8z M19.8,7.9H14V7.7h5.8V7.9z M1.3,10.6L1.3,10.6L1.3,10.6
			L1.3,10.6z"/>
	</g>
	<rect class="st9" width="22" height="22"/>
	<path class="st11" d="M3.3,10.4H9H3.3z"/>
	<path class="st11" d="M8.4,18.4h5.7H8.4z"/>
	<path class="st12" d="M15.2,10.6h3.5H15.2z"/>
	<path class="st13" d="M4,12h4.2H4z"/>
</g>
</svg>
