<svg width="22" height="22" viewBox="0 0 22 22" fill="none" xmlns="http://www.w3.org/2000/svg">
<g clip-path="url(#clip0)">
<path d="M12.4998 12.9C11.5998 13.3 10.4998 13.3 9.5998 12.9H9.4998L9.2998 13.5H9.3998C10.4998 13.9 11.7998 13.9 12.7998 13.5H12.8998L12.4998 12.9Z" fill="#527BA9"/>
<path d="M12.4998 12.9C11.5998 13.3 10.4998 13.3 9.5998 12.9H9.4998L9.2998 13.5H9.3998C10.4998 13.9 11.7998 13.9 12.7998 13.5H12.8998L12.4998 12.9Z" stroke="#527BA9" stroke-width="0.3"/>
<path d="M11.3997 7.80002H10.6997V11.6H11.3997V7.80002Z" fill="#527BA9"/>
<path d="M11.3997 7.80002H10.6997V11.6H11.3997V7.80002Z" stroke="#527BA9" stroke-width="0.3"/>
<path d="M20.3999 0.600004V7.2C20.3999 7.3 20.3999 7.4 20.3999 7.4L18.7999 12.2L16.1999 16.2C16.1999 16.3 16.0999 16.3 15.9999 16.3C15.7999 16.3 15.6999 16.2 15.6999 16.1C15.6999 16 15.6999 16 15.6999 15.9C16.2999 14.8 17.3999 12.8 17.3999 12.8C17.3999 12.8 17.3999 12.7 17.4999 12.7L17.7999 11.7L18.9999 8L17.7999 7.6L16.5999 11.3V11.4C16.4999 11.6 16.3999 11.6 16.1999 11.6C16.0999 11.5 15.9999 11.4 15.9999 11.2L16.4999 8.5V7.4C16.4999 6 17.0999 4.7 17.9999 3.7C18.0999 3.6 18.1999 3.4 18.1999 3.3V0.600004H16.8999V3C16.7999 3.1 16.6999 3.3 16.4999 3.4C15.4999 2 14.0999 1.1 12.4999 0.700004C10.7999 0.400004 8.9999 0.700004 7.3999 1.7C6.5999 2.1 5.9999 2.8 5.3999 3.5C5.2999 3.4 5.1999 3.2 5.0999 3.1V0.600004H3.7999V3.3C3.7999 3.5 3.8999 3.6 3.9999 3.7C4.9999 4.7 5.4999 6 5.4999 7.4V8.4L5.9999 11.2C5.9999 11.4 5.8999 11.5 5.7999 11.6C5.6999 11.6 5.5999 11.6 5.5999 11.6C5.4999 11.6 5.4999 11.5 5.3999 11.4L4.2999 7.7L3.0999 8.1L4.2999 11.8L4.5999 12.8C4.5999 12.8 4.5999 12.9 4.6999 12.9C4.6999 12.9 5.7999 14.9 6.3999 16C6.4999 16.1 6.3999 16.3 6.2999 16.4C6.1999 16.4 6.1999 16.5 6.0999 16.4C5.9999 16.4 5.9999 16.3 5.8999 16.3L3.3999 12.4L1.6999 7.5C1.6999 7.4 1.6999 7.3 1.6999 7.3V0.600004H0.399902V7.2C0.399902 7.4 0.399902 7.6 0.499902 7.8L2.1999 12.8C2.1999 12.8 2.1999 12.9 2.2999 12.9L4.8999 16.9C5.0999 17.3 5.4999 17.5 5.8999 17.6C5.9999 17.6 6.0999 17.6 6.1999 17.6C6.4999 17.6 6.6999 17.5 6.8999 17.4C7.0999 17.6 7.1999 17.7 7.3999 17.9V19.1C7.3999 19.8 7.2999 20.4 7.0999 21C6.9999 21.2 7.0999 21.3 7.0999 21.5C7.1999 21.6 7.2999 21.8 7.4999 21.8C7.5999 21.8 7.5999 21.8 7.6999 21.8H14.5999C14.8999 21.8 15.1999 21.5 15.1999 21.2C15.1999 21.1 15.1999 21.1 15.1999 21C14.9999 20.4 14.8999 19.7 14.8999 19.1V17.9C15.0999 17.8 15.1999 17.6 15.3999 17.5C15.6999 17.7 15.9999 17.7 16.3999 17.7C16.7999 17.6 17.0999 17.4 17.3999 17.1C17.3999 17.1 17.3999 17 17.4999 17L20.0999 13L20.1999 12.9L21.8999 7.9C21.9999 7.7 21.9999 7.5 21.9999 7.3V0.600004H20.3999ZM8.3999 20.6C8.4999 20.1 8.5999 19.6 8.5999 19.1V18.7C8.5999 18.7 8.6999 18.7 8.6999 18.8C10.1999 19.5 11.8999 19.5 13.3999 18.8C13.3999 18.8 13.4999 18.8 13.4999 18.7V19.1C13.4999 19.6 13.5999 20.1 13.6999 20.6H8.3999ZM14.5999 15.4C14.3999 15.7 14.3999 16.1 14.3999 16.4L14.2999 16.5C13.8999 17 13.3999 17.3 12.7999 17.6C11.5999 18.1 10.2999 18.1 9.0999 17.6C8.4999 17.3 7.9999 17 7.5999 16.5C7.5999 16.5 7.5999 16.4 7.4999 16.4C7.5999 16.1 7.4999 15.7 7.2999 15.4C6.8999 14.7 6.2999 13.6 5.8999 12.9C6.4999 12.8 7.0999 12.3 7.1999 11.6C7.1999 11.4 7.1999 11.2 7.1999 11L6.9999 10.2C7.1999 10.2 7.3999 10.2 7.5999 10.2C8.1999 10.2 8.6999 10.2 9.2999 10.1H9.5999L9.3999 8.8H9.0999C8.3999 9 7.6999 9 6.8999 9L6.7999 8.5V8C7.4999 7.7 8.2999 7.6 9.0999 7.8L9.3999 7.9L9.6999 6.7H9.3999C8.4999 6.4 7.5999 6.4 6.7999 6.7C6.7999 6.3 6.7999 5.8 6.7999 5.4C6.6999 5.1 6.4999 4.7 6.4999 4.7L5.9999 3.9C7.0999 1.9 9.9999 1.3 9.9999 1.3C12.7999 0.700004 15.7999 2.9 16.2999 3.8C15.8999 4.2 15.4999 5.6 15.4999 5.6C15.3999 5.9 15.2999 6.3 15.2999 6.7C14.4999 6.4 13.4999 6.4 12.5999 6.6L12.2999 6.7L12.5999 7.9L12.8999 7.8C13.6999 7.6 14.4999 7.7 15.1999 8V8.4L15.0999 9C14.4999 9 13.7999 9 13.1999 8.9H12.8999L12.6999 10.1H12.9999C13.4999 10.2 14.0999 10.2 14.5999 10.2C14.6999 10.2 14.7999 10.2 14.7999 10.2L14.6999 11C14.5999 11.4 14.6999 11.8 14.8999 12.2C15.0999 12.6 15.4999 12.8 15.8999 12.9H15.9999C15.5999 13.6 14.9999 14.7 14.5999 15.4Z" fill="#527BA9"/>
<path d="M6.00008 6.50002C5.70008 6.50002 8.70008 1.90002 13.6001 1.30002" stroke="#527BA9"/>
<path d="M10.5 2.39999C11.9 2.39999 16.1 5.79999 15.8 6.69999Z" fill="#527BA9"/>
<path d="M10.5 2.39999C11.9 2.39999 16.1 5.79999 15.8 6.69999" stroke="#527BA9" stroke-miterlimit="10"/>
<path d="M5.2998 3.80001C5.2998 3.80001 6.5998 0.600009 10.8998 0.600009C10.8998 0.600009 15.4998 0.300009 16.8998 3.50001" stroke="#527BA9"/>
</g>
<defs>
<clipPath id="clip0">
<rect width="22" height="22" fill="white"/>
</clipPath>
</defs>
</svg>
