<svg width="96" height="32" viewBox="0 0 96 32" fill="none" xmlns="http://www.w3.org/2000/svg">
<path d="M6.7409 31.3244C6.4966 31.3244 6.25844 31.3213 6.0166 31.3158C5.51478 31.3093 5.01413 31.2657 4.51875 31.1853C4.05694 31.1058 3.60956 30.958 3.19137 30.7466C2.77675 30.5368 2.39858 30.2617 2.07137 29.9318C1.73978 29.6059 1.46372 29.228 1.25414 28.813C1.0421 28.3952 0.895371 27.9473 0.819059 27.485C0.736565 26.9882 0.691924 26.4858 0.68552 25.9822C0.680597 25.8136 0.673828 25.2506 0.673828 25.2506V6.74101C0.673828 6.74101 0.681213 6.18717 0.686136 6.02409C0.69229 5.52132 0.735982 5.01978 0.818444 4.52378C0.894805 4.06032 1.04152 3.61124 1.25352 3.19209C1.46252 2.77732 1.73725 2.3991 2.06706 2.07209C2.39645 1.74177 2.77562 1.46518 3.19075 1.2524C3.60807 1.04161 4.0547 0.894734 4.51567 0.816704C5.01262 0.735557 5.51495 0.691743 6.01844 0.685627L6.74152 0.675781H89.088L89.8197 0.685627C90.3181 0.691781 90.8166 0.734858 91.3089 0.816089C91.7741 0.894858 92.2258 1.04317 92.6474 1.25486C93.479 1.6834 94.1558 2.36143 94.5827 3.19394C94.792 3.61055 94.936 4.05547 95.0117 4.51517C95.0947 5.01547 95.1409 5.5207 95.1507 6.02778C95.1532 6.25424 95.1532 6.49794 95.1532 6.74101C95.1594 7.04132 95.1594 7.32747 95.1594 7.61547V24.3853C95.1594 24.6764 95.1594 24.9607 95.1532 25.2469C95.1532 25.5072 95.1532 25.7459 95.1501 25.9915C95.1409 26.4899 95.0947 26.9859 95.0129 27.477C94.9381 27.9425 94.7922 28.3937 94.5803 28.8149C94.3692 29.2256 94.0946 29.6005 93.7667 29.9256C93.4394 30.2571 93.0608 30.5337 92.6455 30.7447C92.2246 30.9579 91.774 31.1064 91.3089 31.1853C90.8135 31.2666 90.3126 31.3096 89.8111 31.3158C89.5766 31.3219 89.3311 31.3244 89.0917 31.3244L88.2234 31.3262L6.7409 31.3244Z" fill="white" stroke="#A6A6A6"/>
<path d="M33.8697 21.7204H30.0765L29.1657 24.4096H27.5596L31.1522 14.4601H32.8211L36.4137 24.4103H34.7799L33.8691 21.721L33.8697 21.7204ZM30.4697 20.4798H33.4759L31.994 16.1149H31.9522L30.4691 20.4798H30.4697ZM44.1719 20.7832C44.1719 23.0373 42.9657 24.4859 41.1442 24.4859C40.683 24.5101 40.2243 24.4039 39.8206 24.1795C39.4169 23.9551 39.0846 23.6215 38.8617 23.217H38.8273V26.8103H37.338V17.1555H38.7799V18.3616H38.807C39.0402 17.9591 39.3782 17.6274 39.785 17.4016C40.1918 17.1759 40.6521 17.0647 41.1171 17.0798C42.9583 17.0798 44.1719 18.5352 44.1719 20.7832ZM42.6414 20.7832C42.6414 19.3143 41.8826 18.3487 40.7245 18.3487C39.586 18.3487 38.8211 19.3346 38.8211 20.7832C38.8211 22.2447 39.5866 23.2238 40.7245 23.2238C41.8826 23.2238 42.6414 22.265 42.6414 20.7832ZM52.1571 20.7832C52.1571 23.0373 50.9503 24.4859 49.1294 24.4859C48.6681 24.5102 48.2093 24.4041 47.8055 24.1797C47.4017 23.9552 47.0693 23.6216 46.8463 23.217H46.8119V26.8103H45.3226V17.1555H46.7645V18.3616H46.7916C47.0248 17.9591 47.3628 17.6274 47.7696 17.4016C48.1764 17.1759 48.6368 17.0647 49.1017 17.0798C50.943 17.0798 52.1571 18.5352 52.1571 20.7832ZM50.626 20.7832C50.626 19.3143 49.8673 18.3487 48.7091 18.3487C47.5706 18.3487 46.8057 19.3346 46.8057 20.7832C46.8057 22.2447 47.5713 23.2238 48.7091 23.2238C49.8673 23.2238 50.626 22.265 50.626 20.7832ZM57.4334 21.6379C57.5442 22.6244 58.5023 23.2724 59.8125 23.2724C61.0679 23.2724 61.9706 22.6244 61.9706 21.7346C61.9706 20.9623 61.426 20.5001 60.1368 20.1832L58.847 19.8724C57.0193 19.4312 56.1713 18.5764 56.1713 17.1899C56.1713 15.473 57.6673 14.2939 59.791 14.2939C61.8943 14.2939 63.3356 15.473 63.3848 17.1899H61.8814C61.791 16.1967 60.9706 15.5973 59.7706 15.5973C58.5706 15.5973 57.7503 16.2041 57.7503 17.0866C57.7503 17.7899 58.2746 18.2041 59.5571 18.5204L60.6537 18.7899C62.695 19.273 63.5423 20.0927 63.5423 21.5487C63.5423 23.4103 62.0605 24.5764 59.7023 24.5764C57.495 24.5764 56.0051 23.4379 55.9091 21.6379H57.4334ZM66.7577 15.4386V17.1555H68.1374V18.3346H66.7577V22.3346C66.7577 22.9555 67.034 23.2453 67.6402 23.2453C67.8045 23.2423 67.9676 23.2306 68.13 23.2103V24.3826C67.8574 24.4336 67.5805 24.4564 67.303 24.4515C65.8346 24.4515 65.2617 23.9001 65.2617 22.4927V18.3346H64.207V17.1555H65.2617V15.4386H66.7577ZM68.9356 20.7832C68.9356 18.5001 70.2796 17.0663 72.3756 17.0663C74.4796 17.0663 75.8174 18.5001 75.8174 20.7832C75.8174 23.0724 74.4863 24.5001 72.3762 24.5001C70.2666 24.5001 68.9356 23.0724 68.9356 20.7832ZM74.3005 20.7832C74.3005 19.2176 73.583 18.2933 72.3762 18.2933C71.17 18.2933 70.4519 19.2244 70.4519 20.7832C70.4519 22.3555 71.1694 23.2724 72.3762 23.2724C73.5823 23.2724 74.3005 22.3555 74.3005 20.7832ZM77.0451 17.1555H78.4654V18.3906H78.4999C78.596 18.0049 78.8219 17.664 79.1398 17.4253C79.4576 17.1866 79.8479 17.0646 80.2451 17.0798C80.4168 17.0792 80.5879 17.0983 80.7553 17.1352V18.5278C80.5387 18.4617 80.3127 18.4313 80.0863 18.4379C79.87 18.4291 79.6543 18.4672 79.4541 18.5496C79.2538 18.632 79.0738 18.7567 78.9263 18.9153C78.7789 19.0739 78.6675 19.2625 78.5998 19.4682C78.5322 19.6738 78.5098 19.8917 78.5343 20.1069V24.4103H77.0451V17.1555ZM87.6211 22.2792C87.4205 23.5961 86.138 24.5001 84.4968 24.5001C82.3866 24.5001 81.0765 23.0859 81.0765 20.8176C81.0765 18.5419 82.3934 17.0663 84.4346 17.0663C86.4414 17.0663 87.7036 18.4447 87.7036 20.6447V21.1555H82.5799V21.2447C82.5561 21.5117 82.5895 21.7808 82.6777 22.0339C82.7659 22.287 82.907 22.5185 83.0916 22.7129C83.2761 22.9073 83.5 23.0602 83.7482 23.1615C83.9964 23.2627 84.2634 23.31 84.5313 23.3001C84.8833 23.3331 85.2365 23.2516 85.5385 23.0676C85.8404 22.8837 86.0749 22.6071 86.207 22.2792H87.6211ZM82.5873 20.1143H86.2137C86.2271 19.8742 86.1907 19.634 86.1068 19.4087C86.023 19.1834 85.8935 18.9779 85.7264 18.805C85.5594 18.6321 85.3584 18.4956 85.1361 18.4041C84.9138 18.3125 84.675 18.2679 84.4346 18.273C84.1922 18.2716 83.9518 18.3181 83.7274 18.4101C83.503 18.502 83.299 18.6375 83.1273 18.8087C82.9555 18.9799 82.8194 19.1834 82.7267 19.4074C82.634 19.6315 82.5866 19.8718 82.5873 20.1143Z" fill="#53565A"/>
<path d="M30.2836 6.97051C30.5957 6.94809 30.909 6.99523 31.2007 7.10853C31.4925 7.22183 31.7555 7.39847 31.9707 7.6257C32.1859 7.85293 32.348 8.1251 32.4453 8.42257C32.5426 8.72004 32.5727 9.0354 32.5334 9.3459C32.5334 10.8733 31.7076 11.7521 30.2836 11.7521H28.5568V6.97051H30.2836ZM29.2989 11.0751H30.2005C30.4236 11.0885 30.6468 11.0519 30.854 10.9681C31.0612 10.8843 31.2471 10.7554 31.3982 10.5907C31.5493 10.426 31.6617 10.2297 31.7274 10.0161C31.793 9.80244 31.8102 9.57686 31.7777 9.35575C31.8078 9.13552 31.7888 8.91136 31.7222 8.69932C31.6555 8.48728 31.5427 8.2926 31.392 8.12923C31.2413 7.96587 31.0563 7.83785 30.8503 7.75434C30.6443 7.67083 30.4224 7.63391 30.2005 7.64621H29.2996V11.0751H29.2989ZM33.3728 9.9459C33.3497 9.70859 33.3766 9.46908 33.4516 9.24276C33.5267 9.01644 33.6482 8.80832 33.8084 8.63177C33.9687 8.45522 34.1641 8.31413 34.3821 8.21759C34.6001 8.12104 34.8359 8.07117 35.0743 8.07117C35.3128 8.07117 35.5485 8.12104 35.7666 8.21759C35.9846 8.31413 36.18 8.45522 36.3402 8.63177C36.5005 8.80832 36.622 9.01644 36.697 9.24276C36.772 9.46908 36.7989 9.70859 36.7759 9.9459C36.7989 10.1832 36.772 10.4227 36.697 10.649C36.622 10.8754 36.5005 11.0835 36.3402 11.26C36.18 11.4366 35.9846 11.5777 35.7666 11.6742C35.5485 11.7708 35.3128 11.8206 35.0743 11.8206C34.8359 11.8206 34.6001 11.7708 34.3821 11.6742C34.1641 11.5777 33.9687 11.4366 33.8084 11.26C33.6482 11.0835 33.5267 10.8754 33.4516 10.649C33.3766 10.4227 33.3497 10.1832 33.3728 9.9459ZM36.0429 9.9459C36.0429 9.16375 35.6916 8.70651 35.0749 8.70651C34.4559 8.70651 34.1076 9.16375 34.1076 9.9459C34.1076 10.7342 34.4559 11.1884 35.0749 11.1884C35.6916 11.1884 36.0429 10.7311 36.0429 9.94528V9.9459ZM41.2989 11.7514H40.5605L39.8146 9.09421H39.758L39.0159 11.7514H38.2836L37.2897 8.14344H38.0116L38.6577 10.8967H38.7112L39.4528 8.14344H40.1359L40.878 10.8967H40.934L41.5777 8.14344H42.2897L41.2989 11.7514ZM43.1266 8.14344H43.8116V8.71636H43.8645C43.9548 8.51052 44.1071 8.33799 44.3001 8.22282C44.4932 8.10766 44.7174 8.0556 44.9414 8.0739C45.1169 8.06066 45.2932 8.08708 45.4572 8.15121C45.6211 8.21534 45.7685 8.31554 45.8885 8.44437C46.0085 8.57321 46.0979 8.72738 46.1502 8.89548C46.2025 9.06357 46.2163 9.24128 46.1906 9.41544V11.7514H45.478V9.59451C45.478 9.01482 45.2263 8.72682 44.6996 8.72682C44.5804 8.72128 44.4615 8.74156 44.3509 8.78627C44.2403 8.83098 44.1407 8.89906 44.0589 8.98585C43.977 9.07263 43.915 9.17608 43.8768 9.2891C43.8387 9.40213 43.8255 9.52205 43.838 9.64067V11.7514H43.126V8.14344H43.1266ZM47.3248 6.73482H48.0368V11.7514H47.3248V6.73482ZM49.0269 9.9459C49.0039 9.70859 49.0308 9.46908 49.1058 9.24276C49.1808 9.01644 49.3023 8.80832 49.4626 8.63177C49.6228 8.45522 49.8182 8.31413 50.0362 8.21759C50.2543 8.12104 50.49 8.07117 50.7285 8.07117C50.9669 8.07117 51.2027 8.12104 51.4207 8.21759C51.6387 8.31413 51.8341 8.45522 51.9944 8.63177C52.1546 8.80832 52.2761 9.01644 52.3512 9.24276C52.4262 9.46908 52.4531 9.70859 52.43 9.9459C52.4531 10.1832 52.4262 10.4227 52.3512 10.649C52.2761 10.8754 52.1546 11.0835 51.9944 11.26C51.8341 11.4366 51.6387 11.5777 51.4207 11.6742C51.2027 11.7708 50.9669 11.8206 50.7285 11.8206C50.49 11.8206 50.2543 11.7708 50.0362 11.6742C49.8182 11.5777 49.6228 11.4366 49.4626 11.26C49.3023 11.0835 49.1808 10.8754 49.1058 10.649C49.0308 10.4227 49.0039 10.1832 49.0269 9.9459ZM51.6977 9.9459C51.6977 9.16375 51.3463 8.70651 50.7297 8.70651C50.1106 8.70651 49.7623 9.16375 49.7623 9.9459C49.7623 10.7342 50.1106 11.1884 50.7297 11.1884C51.3463 11.1884 51.6977 10.7311 51.6977 9.94528V9.9459ZM53.1802 10.7311C53.1802 10.0819 53.6639 9.70713 54.5217 9.65421L55.4995 9.59759V9.28621C55.4995 8.90467 55.2472 8.6899 54.7611 8.6899C54.3629 8.6899 54.0879 8.83575 54.0085 9.09113H53.3192C53.3919 8.47144 53.9752 8.0739 54.7937 8.0739C55.6983 8.0739 56.2085 8.52375 56.2085 9.28621V11.7514H55.5229V11.2444H55.4663C55.352 11.4261 55.1915 11.5742 55.0012 11.6736C54.8109 11.7731 54.5977 11.8203 54.3832 11.8105C54.2318 11.8263 54.0787 11.8102 53.9338 11.7633C53.789 11.7163 53.6556 11.6395 53.5422 11.5378C53.4288 11.4361 53.3381 11.3118 53.2757 11.1728C53.2134 11.0339 53.1808 10.8834 53.1802 10.7311ZM55.4995 10.4228V10.1213L54.6183 10.1773C54.1217 10.2105 53.8959 10.3797 53.8959 10.6979C53.8959 11.0228 54.1777 11.2117 54.5654 11.2117C54.6789 11.2232 54.7936 11.2118 54.9025 11.178C55.0115 11.1443 55.1126 11.089 55.1998 11.0154C55.2869 10.9417 55.3584 10.8514 55.4099 10.7496C55.4614 10.6478 55.4919 10.5366 55.4995 10.4228ZM57.1445 9.9459C57.1445 8.80559 57.7303 8.08375 58.6417 8.08375C58.8672 8.0733 59.0909 8.12724 59.2869 8.23926C59.4828 8.35129 59.6428 8.51677 59.7482 8.71636H59.8017V6.73482H60.5137V11.7514H59.8312V11.1816H59.7752C59.6617 11.38 59.4961 11.5435 59.2963 11.6545C59.0965 11.7655 58.8701 11.8196 58.6417 11.8111C57.7242 11.8111 57.1445 11.0887 57.1445 9.9459ZM57.8799 9.9459C57.8799 10.7108 58.2405 11.1717 58.8436 11.1717C59.4442 11.1717 59.8146 10.7041 59.8146 9.94898C59.8146 9.19698 59.4399 8.72313 58.8436 8.72313C58.2442 8.72313 57.8799 9.18652 57.8799 9.9459ZM63.4596 9.9459C63.4365 9.70859 63.4634 9.46908 63.5384 9.24276C63.6134 9.01644 63.735 8.80832 63.8952 8.63177C64.0555 8.45522 64.2509 8.31413 64.4689 8.21759C64.6869 8.12104 64.9227 8.07117 65.1611 8.07117C65.3995 8.07117 65.6353 8.12104 65.8533 8.21759C66.0713 8.31413 66.2667 8.45522 66.427 8.63177C66.5872 8.80832 66.7088 9.01644 66.7838 9.24276C66.8588 9.46908 66.8857 9.70859 66.8626 9.9459C66.8857 10.1832 66.8588 10.4227 66.7838 10.649C66.7088 10.8754 66.5872 11.0835 66.427 11.26C66.2667 11.4366 66.0713 11.5777 65.8533 11.6742C65.6353 11.7708 65.3995 11.8206 65.1611 11.8206C64.9227 11.8206 64.6869 11.7708 64.4689 11.6742C64.2509 11.5777 64.0555 11.4366 63.8952 11.26C63.735 11.0835 63.6134 10.8754 63.5384 10.649C63.4634 10.4227 63.4365 10.1832 63.4596 9.9459ZM66.1303 9.9459C66.1303 9.16375 65.7796 8.70651 65.1623 8.70651C64.5439 8.70651 64.1956 9.16375 64.1956 9.9459C64.1956 10.7342 64.5439 11.1884 65.1623 11.1884C65.7789 11.1884 66.1303 10.7311 66.1303 9.94528V9.9459ZM67.8183 8.14282H68.5039V8.71636H68.5568C68.6471 8.51052 68.7994 8.33799 68.9925 8.22282C69.1855 8.10766 69.4097 8.0556 69.6337 8.0739C69.8092 8.06066 69.9855 8.08708 70.1495 8.15121C70.3134 8.21534 70.4608 8.31554 70.5808 8.44437C70.7008 8.57321 70.7902 8.72738 70.8425 8.89548C70.8948 9.06357 70.9086 9.24128 70.8829 9.41544V11.7514H70.1703V9.59451C70.1703 9.01482 69.918 8.72682 69.3919 8.72682C69.2727 8.72128 69.1538 8.74156 69.0432 8.78627C68.9326 8.83098 68.833 8.89906 68.7512 8.98585C68.6694 9.07263 68.6073 9.17608 68.5691 9.2891C68.531 9.40213 68.5178 9.52205 68.5303 9.64067V11.7514H67.8183V8.14344V8.14282ZM74.9063 7.24498V8.16005H75.6879V8.75944H74.9063V10.6148C74.9063 10.9927 75.062 11.1582 75.4165 11.1582C75.5069 11.1582 75.598 11.1521 75.6879 11.1416V11.7348C75.5599 11.7579 75.4302 11.7703 75.3002 11.7717C74.5088 11.7717 74.1931 11.493 74.1931 10.797V8.76005H73.6208V8.15944H74.1931V7.24498H74.9063ZM76.6602 6.73482H77.3666V8.72313H77.4226C77.5173 8.51534 77.6738 8.34181 77.8707 8.22618C78.0676 8.11055 78.2953 8.05845 78.5229 8.07698C78.6976 8.06734 78.8723 8.09641 79.0345 8.16211C79.1967 8.2278 79.3423 8.3285 79.4611 8.45701C79.5798 8.58552 79.6688 8.73867 79.7215 8.90552C79.7742 9.07237 79.7894 9.2488 79.766 9.42221V11.7514H79.0522V9.59759C79.0522 9.02159 78.7845 8.7299 78.2811 8.7299C78.1588 8.71993 78.0357 8.73679 77.9206 8.77931C77.8054 8.82182 77.7009 8.88897 77.6144 8.97606C77.5279 9.06315 77.4615 9.16807 77.4198 9.2835C77.378 9.39894 77.362 9.52209 77.3728 9.64436V11.7514H76.6608V6.73482H76.6602ZM83.9174 10.7773C83.8206 11.107 83.6111 11.3921 83.3254 11.5829C83.0396 11.7737 82.6959 11.858 82.3543 11.821C82.1166 11.8273 81.8803 11.7818 81.6619 11.6877C81.4436 11.5936 81.2483 11.453 81.0897 11.2759C80.931 11.0987 80.8129 10.8891 80.7434 10.6617C80.6739 10.4342 80.6547 10.1944 80.6872 9.95882C80.6556 9.72251 80.6751 9.48215 80.7444 9.25402C80.8137 9.02589 80.9313 8.81533 81.089 8.63659C81.2468 8.45784 81.4412 8.3151 81.659 8.21802C81.8767 8.12094 82.1128 8.07179 82.3512 8.0739C83.3549 8.0739 83.9605 8.75944 83.9605 9.89236V10.141H81.4128V10.181C81.4016 10.3134 81.4183 10.4466 81.4616 10.5722C81.505 10.6978 81.5741 10.813 81.6645 10.9103C81.7549 11.0076 81.8647 11.085 81.9868 11.1374C82.1089 11.1899 82.2405 11.2162 82.3734 11.2148C82.5438 11.2353 82.7164 11.2046 82.8692 11.1267C83.0221 11.0488 83.1483 10.9272 83.2319 10.7773H83.9174ZM81.4128 9.61421H83.2349C83.2438 9.49317 83.2273 9.37162 83.1864 9.25736C83.1455 9.14309 83.0812 9.03862 82.9976 8.95066C82.914 8.86271 82.8129 8.7932 82.7009 8.7466C82.5888 8.69999 82.4683 8.67733 82.3469 8.68005C82.2238 8.67857 82.1017 8.70171 81.9877 8.74813C81.8737 8.79455 81.7701 8.86331 81.6831 8.95035C81.596 9.03739 81.5273 9.14096 81.4809 9.25497C81.4344 9.36898 81.4113 9.49112 81.4128 9.61421ZM20.0036 15.9114C20.0125 15.2159 20.1972 14.534 20.5405 13.9291C20.8839 13.3242 21.3747 12.816 21.9672 12.4517C21.5908 11.9142 21.0943 11.4717 20.517 11.1596C19.9397 10.8475 19.2976 10.6742 18.6417 10.6536C17.2423 10.5071 15.886 11.4905 15.1728 11.4905C14.446 11.4905 13.3482 10.6684 12.166 10.693C11.4015 10.7177 10.6563 10.94 10.0032 11.3383C9.35011 11.7365 8.81129 12.2972 8.43925 12.9656C6.82756 15.7557 8.0294 19.8561 9.5734 22.1114C10.3457 23.2161 11.2485 24.4499 12.4288 24.4056C13.5851 24.3576 14.0165 23.669 15.4116 23.669C16.7937 23.669 17.1992 24.4056 18.4042 24.3779C19.6442 24.3576 20.4257 23.2684 21.1709 22.1539C21.7258 21.3671 22.1529 20.4975 22.4362 19.5773C21.7156 19.2726 21.1007 18.7624 20.6681 18.1105C20.2355 17.4586 20.0044 16.6938 20.0036 15.9114ZM17.7272 9.17052C18.4036 8.35892 18.737 7.31562 18.6565 6.26221C17.6232 6.37059 16.6687 6.86431 15.9832 7.64498C15.6483 8.02633 15.3917 8.46995 15.2283 8.9505C15.0648 9.43104 14.9977 9.93908 15.0306 10.4456C15.5473 10.4509 16.0584 10.3389 16.5255 10.118C16.9926 9.89714 17.4035 9.57318 17.7272 9.17052Z" fill="#999999"/>
</svg>
