<svg width="97" height="30" viewBox="0 0 97 30" fill="none" xmlns="http://www.w3.org/2000/svg">
<path d="M93.4548 0.57666H3.40364C1.83722 0.57666 0.567383 1.86815 0.567383 3.46128V26.5382C0.567383 28.1313 1.83722 29.4228 3.40364 29.4228H93.4548C95.0212 29.4228 96.2911 28.1313 96.2911 26.5382V3.46128C96.2911 1.86815 95.0212 0.57666 93.4548 0.57666Z" fill="white" stroke="#A6A6A6"/>
<path d="M48.8831 16.262C48.2877 16.2649 47.7066 16.4472 47.213 16.7857C46.7195 17.1242 46.3355 17.6039 46.1097 18.1641C45.8839 18.7244 45.8264 19.3401 45.9443 19.9336C46.0622 20.5271 46.3504 21.0717 46.7723 21.4988C47.1943 21.9259 47.7313 22.2163 48.3154 22.3333C48.8995 22.4504 49.5046 22.3888 50.0543 22.1564C50.6041 21.9241 51.0738 21.5312 51.4042 21.0276C51.7347 20.524 51.911 19.9321 51.9111 19.3266C51.9169 18.9212 51.8425 18.5187 51.6922 18.1432C51.5419 17.7677 51.3189 17.4267 51.0363 17.1407C50.7538 16.8547 50.4175 16.6295 50.0476 16.4784C49.6777 16.3273 49.2816 16.2535 48.8831 16.2614V16.262ZM48.8831 21.1871C48.5169 21.2132 48.1515 21.1266 47.8343 20.9386C47.5172 20.7507 47.263 20.47 47.1047 20.1331C46.9465 19.7963 46.8916 19.4188 46.9471 19.0498C47.0026 18.6807 47.166 18.3372 47.416 18.0639C47.666 17.7905 47.9911 17.6 48.349 17.517C48.7069 17.4341 49.081 17.4626 49.4228 17.5987C49.7646 17.7349 50.0582 17.9725 50.2654 18.2807C50.4726 18.5888 50.5839 18.9532 50.5848 19.3266C50.5962 19.5631 50.561 19.7996 50.4811 20.0221C50.4012 20.2445 50.2784 20.4485 50.1198 20.6219C49.9612 20.7953 49.77 20.9346 49.5576 21.0317C49.3452 21.1288 49.1159 21.1817 48.8831 21.1871ZM42.2814 16.2614C41.6856 16.2627 41.1036 16.4437 40.6089 16.7813C40.1142 17.119 39.7289 17.5981 39.5019 18.1584C39.2748 18.7186 39.2161 19.3347 39.3331 19.9288C39.4502 20.5229 39.7378 21.0684 40.1595 21.4964C40.5813 21.9244 41.1183 22.2156 41.7027 22.3334C42.2872 22.4511 42.8928 22.39 43.4431 22.1578C43.9934 21.9256 44.4637 21.5327 44.7946 21.0288C45.1254 20.5249 45.302 19.9325 45.302 19.3266C45.3079 18.9212 45.2335 18.5188 45.0832 18.1433C44.933 17.7678 44.71 17.4269 44.4275 17.1409C44.145 16.8549 43.8088 16.6297 43.439 16.4786C43.0691 16.3275 42.6731 16.2536 42.2746 16.2614H42.2814ZM42.2814 21.1871C41.9151 21.2146 41.5491 21.1292 41.2311 20.9422C40.9131 20.7552 40.6578 20.4751 40.4985 20.1384C40.3392 19.8018 40.2833 19.4242 40.3379 19.0547C40.3926 18.6853 40.5554 18.3411 40.805 18.0671C41.0547 17.793 41.3797 17.6018 41.7377 17.5182C42.0957 17.4346 42.4702 17.4626 42.8124 17.5985C43.1546 17.7344 43.4486 17.9719 43.6562 18.2801C43.8638 18.5883 43.9754 18.953 43.9763 19.3266C43.9878 19.5631 43.9525 19.7996 43.8726 20.0221C43.7928 20.2445 43.6699 20.4485 43.5113 20.6219C43.3527 20.7953 43.1616 20.9346 42.9492 21.0317C42.7368 21.1288 42.5074 21.1817 42.2746 21.1871H42.2814ZM34.4182 17.2064V18.5045H37.4813C37.4334 19.116 37.1835 19.693 36.7723 20.1418C36.4658 20.4593 36.0973 20.708 35.6906 20.872C35.2839 21.0359 34.8479 21.1114 34.4108 21.0937C33.9638 21.0937 33.5212 21.0041 33.1083 20.8302C32.6954 20.6562 32.3202 20.4013 32.0041 20.0798C31.6881 19.7584 31.4374 19.3768 31.2663 18.9568C31.0953 18.5368 31.0073 18.0867 31.0073 17.6321C31.0073 17.1776 31.0953 16.7274 31.2663 16.3075C31.4374 15.8875 31.6881 15.5059 32.0041 15.1845C32.3202 14.863 32.6954 14.6081 33.1083 14.4341C33.5212 14.2601 33.9638 14.1706 34.4108 14.1706C35.2743 14.1561 36.1083 14.4906 36.7297 15.1006L37.6305 14.1845C37.211 13.7525 36.7106 13.4106 36.1588 13.179C35.607 12.9474 35.0151 12.8308 34.4182 12.8362C33.7887 12.8128 33.1611 12.9187 32.5728 13.1476C31.9846 13.3764 31.4477 13.7235 30.9942 14.1682C30.5408 14.6128 30.1802 15.1458 29.9338 15.7354C29.6875 16.3249 29.5605 16.959 29.5605 17.5995C29.5605 18.2401 29.6875 18.8742 29.9338 19.4637C30.1802 20.0533 30.5408 20.5863 30.9942 21.0309C31.4477 21.4756 31.9846 21.8227 32.5728 22.0515C33.1611 22.2804 33.7887 22.3863 34.4182 22.3629C35.0251 22.3908 35.631 22.2861 36.1949 22.056C36.7588 21.8258 37.2676 21.4754 37.6872 21.0285C38.4301 20.1984 38.8267 19.1072 38.7934 17.9852C38.7955 17.7118 38.7716 17.4388 38.7219 17.17L34.4182 17.2064ZM66.5461 18.216C66.3612 17.6627 66.0153 17.1797 65.5545 16.8307C65.0936 16.4818 64.5393 16.2834 63.9651 16.262C63.5773 16.2612 63.1934 16.3413 62.8373 16.4974C62.4811 16.6535 62.1602 16.8822 61.8943 17.1694C61.6285 17.4567 61.4234 17.7963 61.2918 18.1673C61.1601 18.5383 61.1047 18.9329 61.1289 19.3266C61.1202 19.7296 61.1915 20.1303 61.3385 20.5047C61.4855 20.879 61.7052 21.2195 61.9845 21.5056C62.2637 21.7917 62.5968 22.0176 62.9638 22.1699C63.3308 22.3221 63.7242 22.3976 64.1206 22.3918C64.6166 22.3945 65.1055 22.272 65.5435 22.0354C65.9816 21.7988 66.3551 21.4554 66.6307 21.036L65.6028 20.3148C65.4493 20.575 65.232 20.7901 64.9721 20.9392C64.7123 21.0882 64.4189 21.1661 64.1206 21.1652C63.8135 21.1772 63.5099 21.0948 63.2494 20.929C62.9889 20.7631 62.7835 20.5214 62.6599 20.2352L66.6948 18.5402L66.5456 18.216H66.5461ZM62.4336 19.24C62.4192 19.017 62.4488 18.7933 62.5205 18.582C62.5922 18.3707 62.7047 18.1761 62.8513 18.0095C62.9979 17.843 63.1756 17.7078 63.3742 17.612C63.5728 17.5162 63.7881 17.4617 64.0077 17.4516C64.2364 17.4363 64.4645 17.4896 64.6637 17.605C64.8628 17.7204 65.0243 17.8927 65.128 18.1006L62.4336 19.24ZM59.1571 22.2112H60.4834V13.1968H59.1571V22.2112ZM56.9874 16.9468H56.938C56.7382 16.7195 56.4934 16.5378 56.2197 16.4135C55.9459 16.2892 55.6495 16.2252 55.3497 16.2256C54.5743 16.2631 53.8428 16.6027 53.3071 17.1741C52.7714 17.7455 52.4725 18.5047 52.4725 19.2943C52.4725 20.0838 52.7714 20.843 53.3071 21.4144C53.8428 21.9858 54.5743 22.3254 55.3497 22.3629C55.6502 22.3681 55.9481 22.3061 56.2225 22.1816C56.497 22.057 56.7412 21.8727 56.938 21.6418H56.9806V22.0814C56.9806 23.2571 56.3634 23.8843 55.3707 23.8843C55.0402 23.8763 54.7195 23.7686 54.4494 23.5747C54.1793 23.3809 53.972 23.1097 53.8539 22.7956L52.6978 23.286C52.9155 23.8241 53.2861 24.2839 53.7624 24.6063C54.2386 24.9288 54.7986 25.0992 55.3707 25.0958C56.9239 25.0958 58.207 24.1658 58.207 21.9008V16.442H56.9874V16.9468ZM55.47 21.1871C55.0132 21.1454 54.5882 20.9313 54.2787 20.587C53.9693 20.2427 53.7977 19.7931 53.7977 19.3266C53.7977 18.8601 53.9693 18.4105 54.2787 18.0661C54.5882 17.7218 55.0132 17.5077 55.47 17.466C55.6968 17.4778 55.919 17.5356 56.1235 17.6361C56.3279 17.7366 56.5106 17.8777 56.6606 18.0511C56.8106 18.2245 56.925 18.4267 56.997 18.6457C57.069 18.8648 57.0972 19.0963 57.0798 19.3266C57.0992 19.5578 57.0722 19.7907 57.0006 20.0111C56.9289 20.2314 56.814 20.4347 56.6629 20.6086C56.5118 20.7825 56.3275 20.9235 56.1213 21.0229C55.9151 21.1224 55.6912 21.1782 55.4632 21.1871H55.47ZM72.757 13.1968H69.5877V22.2112H70.914V18.7929H72.7644C73.1426 18.8211 73.5225 18.7697 73.8803 18.6418C74.2381 18.514 74.5661 18.3125 74.8439 18.0499C75.1217 17.7873 75.3432 17.4693 75.4948 17.1157C75.6463 16.7621 75.7245 16.3805 75.7245 15.9948C75.7245 15.6091 75.6463 15.2276 75.4948 14.874C75.3432 14.5204 75.1217 14.2024 74.8439 13.9398C74.5661 13.6772 74.2381 13.4757 73.8803 13.3479C73.5225 13.22 73.1426 13.1686 72.7644 13.1968H72.757ZM72.757 17.5237H70.9066V14.4516H72.7859C73.1893 14.4516 73.5762 14.6146 73.8615 14.9047C74.1467 15.1948 74.307 15.5883 74.307 15.9986C74.307 16.4089 74.1467 16.8024 73.8615 17.0925C73.5762 17.3826 73.1893 17.5456 72.7859 17.5456L72.7575 17.5237H72.757ZM80.9328 16.2256C80.45 16.1962 79.9694 16.3108 79.5498 16.5555C79.1303 16.8001 78.7902 17.1641 78.5713 17.6027L79.7489 18.1006C79.8649 17.883 80.0407 17.7045 80.2547 17.5867C80.4687 17.4689 80.7118 17.4169 80.9543 17.4371C81.1226 17.4171 81.2932 17.4314 81.456 17.4792C81.6188 17.5269 81.7706 17.6071 81.9026 17.7152C82.0346 17.8232 82.1442 17.9569 82.2248 18.1085C82.3055 18.2601 82.3557 18.4264 82.3725 18.5979V18.692C81.9465 18.4626 81.4715 18.3437 80.9895 18.3458C79.72 18.3458 78.4369 19.067 78.4369 20.372C78.4494 20.6503 78.5167 20.9232 78.6347 21.1747C78.7527 21.4261 78.9191 21.6509 79.124 21.8358C79.3289 22.0208 79.5682 22.162 79.8278 22.2512C80.0873 22.3405 80.3617 22.3759 80.635 22.3554C80.9689 22.3798 81.3031 22.3123 81.6025 22.16C81.9019 22.0077 82.1555 21.7763 82.3367 21.49H82.3793V22.2112H83.6556V18.7427C83.6556 17.1631 82.4785 16.2475 80.9685 16.2475L80.9328 16.2256ZM80.7694 21.1658C80.3372 21.1658 79.7342 20.942 79.7342 20.4008C79.7342 19.6796 80.4858 19.442 81.1523 19.442C81.5735 19.4314 81.9898 19.536 82.3577 19.7448C82.3134 20.1352 82.1318 20.4962 81.8465 20.7612C81.5613 21.0262 81.1914 21.1775 80.8051 21.1871L80.7694 21.1652V21.1658ZM88.307 16.442L86.7896 20.3506H86.7471L85.173 16.442H83.7548L86.1157 21.9083L84.7685 24.9441H86.1515L89.7819 16.442H88.307ZM76.3874 22.2112H77.7136V13.1968H76.3874V22.2112Z" fill="#53565A"/>
<path d="M34.1913 7.96162C34.2033 8.22616 34.1624 8.49042 34.0709 8.73836C33.9794 8.98629 33.8394 9.21274 33.6592 9.40393C33.4582 9.61645 33.2153 9.78347 32.9465 9.89411C32.6778 10.0047 32.3891 10.0565 32.0993 10.046C31.6596 10.0427 31.2306 9.90736 30.8662 9.65705C30.5018 9.40675 30.2181 9.05259 30.0508 8.639C29.8835 8.2254 29.8399 7.77077 29.9256 7.33211C30.0113 6.89345 30.2225 6.49028 30.5325 6.17316C30.7361 5.96174 30.9802 5.79506 31.2497 5.68342C31.5192 5.57179 31.8084 5.51757 32.0993 5.52412C32.3992 5.52316 32.6961 5.58461 32.9717 5.7047C33.2281 5.8097 33.4567 5.97528 33.6382 6.18758L33.2627 6.56951C33.1212 6.39835 32.9424 6.26302 32.7406 6.17421C32.5388 6.0854 32.3194 6.04554 32.0998 6.05778C31.8783 6.05663 31.6589 6.101 31.4547 6.18821C31.2504 6.27543 31.0656 6.40369 30.9113 6.56532C30.757 6.72695 30.6364 6.91861 30.5567 7.1288C30.4769 7.33899 30.4398 7.5634 30.4474 7.78855C30.4429 8.12468 30.5362 8.45466 30.7158 8.73688C30.8954 9.01909 31.1531 9.2409 31.4565 9.37432C31.7599 9.50773 32.0953 9.54679 32.4205 9.48655C32.7457 9.42632 33.046 9.26949 33.2837 9.03585C33.5021 8.79585 33.6275 8.48316 33.6382 8.15605H32.0998V7.63682H34.1629C34.1817 7.74412 34.1913 7.85259 34.1913 7.96162ZM37.4388 6.15874H35.5243V7.52893H37.2686V8.04816H35.5243V9.41835H37.4388V9.95201H34.9571V5.62508H37.4388V6.15874ZM39.7645 9.95201H39.2188V6.15874H38.0276V5.62508H40.9841V6.15874H39.7645V9.95201ZM43.0688 9.95201V5.62508H43.615V9.95201H43.0688ZM46.0395 9.95201H45.4938V6.15874H44.3026V5.62508H47.2239V6.15874H46.0395V9.95201ZM52.7614 9.38951C52.3469 9.80875 51.7861 10.0441 51.2015 10.0441C50.6169 10.0441 50.056 9.80875 49.6415 9.38951C49.2385 8.95574 49.014 8.38158 49.014 7.7848C49.014 7.18802 49.2385 6.61386 49.6415 6.18008C49.8458 5.97076 50.0889 5.80463 50.3566 5.69127C50.6243 5.5779 50.9115 5.51953 51.2015 5.51953C51.4915 5.51953 51.7786 5.5779 52.0463 5.69127C52.3141 5.80463 52.5571 5.97076 52.7614 6.18008C53.1659 6.61306 53.3915 7.18752 53.3915 7.7848C53.3915 8.38207 53.1659 8.95653 52.7614 9.38951ZM50.046 9.02893C50.353 9.33977 50.7685 9.51427 51.2017 9.51427C51.6349 9.51427 52.0505 9.33977 52.3575 9.02893C52.6605 8.68928 52.8283 8.24712 52.8283 7.78855C52.8283 7.32997 52.6605 6.88781 52.3575 6.54816C52.0506 6.23719 51.635 6.06258 51.2017 6.06258C50.7685 6.06258 50.3529 6.23719 50.046 6.54816C49.743 6.88781 49.5752 7.32997 49.5752 7.78855C49.5752 8.24712 49.743 8.68928 50.046 9.02893ZM54.1585 9.95201V5.62508H54.8251L56.8955 8.99316V5.62508H57.4418V9.95201H56.8745L54.7116 6.42528V9.95201H54.1585Z" fill="#999999"/>
<path d="M7.97031 6.01406C7.7392 6.29611 7.62255 6.65718 7.64414 7.02367V22.9756C7.62255 23.3421 7.7392 23.7032 7.97031 23.9852L8.01966 24.036L16.8053 15.1075V14.8987L8.01966 5.96387L7.97031 6.01406Z" fill="url(#paint0_linear)"/>
<path d="M19.7119 18.0862L16.8047 15.1075V14.8987L19.7119 11.9131L19.776 11.9494L23.2572 13.9612C24.2499 14.5312 24.2499 15.4687 23.2572 16.0456L19.7896 18.0504L19.7119 18.0862Z" fill="url(#paint1_linear)"/>
<path d="M19.7969 18.0433L16.8047 15L7.96973 23.9856C8.17209 24.1664 8.4302 24.2697 8.69948 24.2776C8.96876 24.2855 9.2323 24.1975 9.44458 24.0288L19.8043 18.0433" fill="url(#paint2_linear)"/>
<path d="M19.7969 11.9562L9.43774 5.97063C9.22551 5.80184 8.96195 5.71378 8.69264 5.72168C8.42333 5.72958 8.16521 5.83295 7.96289 6.0139L16.8046 14.9995L19.7969 11.9562Z" fill="url(#paint3_linear)"/>
<path opacity="0.2" d="M19.7118 17.9785L9.43721 23.9272C9.23251 24.0829 8.98376 24.167 8.72814 24.167C8.47252 24.167 8.22377 24.0829 8.01908 23.9272L7.96973 23.9774L8.01908 24.0281C8.43884 24.3501 9.01744 24.3501 9.43721 24.0281L19.7969 18.0431L19.7118 17.9785Z" fill="black"/>
<path opacity="0.12" d="M7.97031 23.8846C7.7392 23.6026 7.62255 23.2415 7.64414 22.875V22.9835C7.62255 23.35 7.7392 23.711 7.97031 23.9931L8.01966 23.9423L7.97031 23.8846ZM23.2577 15.9375L19.7124 17.9787L19.7765 18.0433L23.2577 16.0385C23.4553 15.9441 23.6248 15.7983 23.7493 15.616C23.8738 15.4337 23.9488 15.2212 23.9668 15C23.9269 15.201 23.8423 15.39 23.7194 15.5525C23.5964 15.7151 23.4385 15.8467 23.2577 15.9375Z" fill="black"/>
<path opacity="0.25" d="M9.43774 6.07158L23.2577 14.062C23.4385 14.1527 23.5964 14.2844 23.7193 14.4469C23.8422 14.6095 23.9269 14.7985 23.9668 14.9995C23.9488 14.7783 23.8738 14.5658 23.7493 14.3834C23.6248 14.2011 23.4552 14.0554 23.2577 13.961L9.43774 5.97062C8.44505 5.4012 7.63672 5.87716 7.63672 7.031V7.13889C7.65827 5.97754 8.45243 5.50216 9.43831 6.07158H9.43774Z" fill="white"/>
<defs>
<linearGradient id="paint0_linear" x1="13.2345" y1="6.85808" x2="5.57607" y2="14.3882" gradientUnits="userSpaceOnUse">
<stop stop-color="#00A0FF"/>
<stop offset="0.01" stop-color="#00A1FF"/>
<stop offset="0.26" stop-color="#00BEFF"/>
<stop offset="0.51" stop-color="#00D2FF"/>
<stop offset="0.76" stop-color="#00DFFF"/>
<stop offset="1" stop-color="#00E3FF"/>
</linearGradient>
<linearGradient id="paint1_linear" x1="24.5548" y1="14.9996" x2="7.40252" y2="14.9996" gradientUnits="userSpaceOnUse">
<stop stop-color="#FFE000"/>
<stop offset="0.41" stop-color="#FFBD00"/>
<stop offset="0.78" stop-color="#FFA500"/>
<stop offset="1" stop-color="#FF9C00"/>
</linearGradient>
<linearGradient id="paint2_linear" x1="18.1734" y1="17.868" x2="5.09055" y2="30.7263" gradientUnits="userSpaceOnUse">
<stop stop-color="#FF3A44"/>
<stop offset="1" stop-color="#C31162"/>
</linearGradient>
<linearGradient id="paint3_linear" x1="5.74354" y1="4.62338" x2="11.5832" y2="10.365" gradientUnits="userSpaceOnUse">
<stop stop-color="#32A071"/>
<stop offset="0.07" stop-color="#2DA771"/>
<stop offset="0.48" stop-color="#15CF74"/>
<stop offset="0.8" stop-color="#06E775"/>
<stop offset="1" stop-color="#00F076"/>
</linearGradient>
</defs>
</svg>
