<svg width="24" height="24" viewBox="0 0 24 24" fill="none" xmlns="http://www.w3.org/2000/svg">
<path fill-rule="evenodd" clip-rule="evenodd" d="M0 12C0 5.37322 5.37322 0 12 0C18.6268 0 24 5.37322 24 12C24 18.6268 18.6268 24 12 24C5.37322 24 0 18.6268 0 12ZM17.7747 9.43152C17.7747 9.30299 17.7747 9.17175 17.7667 9.04583C18.348 8.6253 18.8542 8.09764 19.2587 7.50299C18.7229 7.73605 18.1444 7.90211 17.5444 7.9664C18.1631 7.59945 18.6292 7.01818 18.8515 6.32981C18.2783 6.66731 17.6354 6.91906 16.9631 7.04498C16.4194 6.46641 15.6479 6.10748 14.7908 6.10748C12.9747 6.10748 11.464 7.74407 11.8846 9.76636C10.7012 9.7073 9.54348 9.3999 8.48669 8.86414C7.42994 8.32837 6.4977 7.57622 5.75065 6.65658C5.49082 7.09585 5.34616 7.60211 5.34616 8.15657C5.34649 8.64633 5.46768 9.12848 5.69899 9.56019C5.93026 9.99193 6.26452 10.3599 6.67208 10.6315C6.18726 10.6128 5.72384 10.4762 5.33012 10.2539V10.2914C5.32875 10.9781 5.56517 11.6442 5.99925 12.1765C6.43333 12.7087 7.03829 13.0742 7.71137 13.211C7.23993 13.3315 6.82743 13.3315 6.36941 13.2645C6.74439 14.4431 7.84261 15.3002 9.14975 15.327C8.1292 16.1252 6.84887 16.5966 5.456 16.5966C5.20956 16.5966 4.9792 16.5859 4.73816 16.5591C6.05602 17.4029 7.62028 17.893 9.3078 17.893C14.7801 17.893 17.7747 13.3636 17.7747 9.43152Z" fill="white"/>
</svg>
