<svg width="24" height="24" viewBox="0 0 24 24" fill="none" xmlns="http://www.w3.org/2000/svg">
<path fill-rule="evenodd" clip-rule="evenodd" d="M12 0C5.3725 0 0 5.37249 0 12C0 18.6275 5.3725 24 12 24C18.6275 24 24 18.6275 24 12C24 5.37249 18.6275 0 12 0ZM14.0038 11.7907L11.1963 10.4807C10.9513 10.367 10.75 10.4945 10.75 10.7657V13.2333C10.75 13.5045 10.9513 13.632 11.1963 13.5183L14.0025 12.2082C14.2488 12.0932 14.2488 11.9057 14.0038 11.7907ZM5.74976 11.9987C5.74976 16.3199 5.85726 16.8736 11.9998 16.8736C18.1423 16.8736 18.2498 16.3199 18.2498 11.9987C18.2498 7.67756 18.1423 7.12382 11.9998 7.12382C5.85726 7.12382 5.74976 7.67756 5.74976 11.9987Z" fill="white"/>
</svg>
