<svg width="24" height="24" viewBox="0 0 24 24" fill="none" xmlns="http://www.w3.org/2000/svg">
<path fill-rule="evenodd" clip-rule="evenodd" d="M12 0C8.81739 0 5.76516 1.26428 3.51472 3.51472C1.26428 5.76515 0 8.81742 0 12C0 15.1826 1.26428 18.2348 3.51472 20.4853C5.76516 22.7357 8.81739 24 12 24C13.5758 24 15.1363 23.6896 16.5922 23.0866C18.0481 22.4835 19.371 21.5996 20.4853 20.4853C21.5996 19.371 22.4835 18.0481 23.0865 16.5922C23.6896 15.1363 24 13.5758 24 12C24 10.4242 23.6896 8.86369 23.0865 7.40781C22.4835 5.95188 21.5996 4.62904 20.4853 3.51472C19.371 2.40041 18.0481 1.5165 16.5922 0.913444C15.1363 0.31039 13.5758 0 12 0ZM16.4985 9.37529H14.9998C14.7935 9.37529 14.6248 9.20652 14.6235 9.00021V7.50118C14.6235 7.40136 14.6632 7.30565 14.7338 7.23505C14.8043 7.1645 14.9 7.12484 14.9998 7.12484H16.4985C16.5983 7.12484 16.694 7.1645 16.7646 7.23505C16.8351 7.30565 16.8748 7.40136 16.8748 7.50118V9.00021C16.8745 9.09981 16.8347 9.19521 16.7641 9.2655C16.6936 9.33582 16.5981 9.37529 16.4985 9.37529ZM12 14.4981C12.3284 14.498 12.6536 14.4332 12.9569 14.3075C13.2603 14.1817 13.5359 13.9975 13.7681 13.7652C14.0002 13.5329 14.1844 13.2572 14.3099 12.9537C14.4355 12.6503 14.5001 12.3251 14.5 11.9967C14.5 11.6683 14.4352 11.3431 14.3095 11.0397C14.1837 10.7364 13.9994 10.4607 13.7672 10.2286C13.5349 9.99639 13.2592 9.81226 12.9558 9.68664C12.6524 9.56106 12.3272 9.49644 11.9988 9.49655C11.3356 9.49671 10.6996 9.76034 10.2308 10.2294C9.76193 10.6985 9.49863 11.3347 9.49878 11.9979C9.49897 12.6612 9.76259 13.2972 10.2317 13.7661C10.7007 14.235 11.3368 14.4982 12 14.4981ZM15.7502 12C15.7502 12.9945 15.3552 13.9482 14.6519 14.6514C13.9486 15.3546 12.9948 15.7496 12.0002 15.7496C11.0057 15.7496 10.0519 15.3546 9.34859 14.6514C8.64532 13.9482 8.25024 12.9945 8.25024 12C8.25024 11.7863 8.27274 11.5775 8.31147 11.375H7.00024V16.3708C7.00024 16.7183 7.28148 16.9995 7.62897 16.9995H16.3727C16.5393 16.9991 16.6989 16.9328 16.8165 16.8149C16.9342 16.6971 17.0002 16.5373 17.0002 16.3708V11.375H15.689C15.7277 11.5775 15.7502 11.7863 15.7502 12ZM16.8612 18.2489C17.625 18.2489 18.25 17.6239 18.25 16.8602V7.1378C18.25 6.37404 17.625 5.74904 16.8612 5.74904H7.13873C6.375 5.74904 5.75 6.37404 5.75 7.1378V16.8602C5.75 17.6239 6.375 18.2489 7.13873 18.2489H16.8612Z" fill="white"/>
</svg>
