<svg width="324" height="400" viewBox="0 0 324 400" fill="none" xmlns="http://www.w3.org/2000/svg">
<path d="M316.35 178.36C316.13 177.55 315.94 176.75 315.71 175.94C314.8 172.95 313.88 169.95 312.81 167.04H312.83C312.83 167.04 312.79 166.96 312.73 166.84C307.44 152.48 300.3 139.08 291.67 126.92C290.87 125.76 290.07 124.65 289.29 123.6C289.29 123.6 287.31 120.58 285.37 118.37C284.96 117.9 284.55 117.46 284.17 117.11C284.16 117.08 284.12 117.04 284.1 117.01V117.04C283.9 116.84 283.69 116.68 283.5 116.54C283.32 116.34 283.08 116.22 282.79 116.16C282.71 116.13 282.64 116.11 282.55 116.11C282.5 116.11 282.47 116.08 282.42 116.08C281.59 116.08 280.92 116.75 280.92 117.56C280.92 117.82 280.99 118.06 281.12 118.26C281.21 118.58 281.34 119.03 281.48 119.54C282.61 123.56 335.9 329.47 175.83 354.39C175.82 354.39 175.78 354.39 175.79 354.39C177.32 353.5 274.04 296.34 247.17 147.46C246.77 145.25 246.29 143.05 245.75 140.87C243.01 129.73 233.68 91.43 226.51 57.25C224.84 47.39 223.59 38.68 222.67 31.48C222.06 26.71 221.7 21.92 221.56 17.11C221.45 13.64 220.98 10.87 220.29 8.65002V8.62002L220.28 8.63002C215.56 -6.28998 199.71 4.43002 199.71 4.43002L184.9 14.57C171.33 22.91 156.47 31.15 141.31 39.71C116.46 52.87 48.83 90.64 22.22 142.33C7.97996 169.99 -11.02 220.48 10.5 288.86C10.5 288.86 47.29 399.3 150.5 399.3C172.94 399.3 262.54 402.44 308.47 304.1C308.46 304.1 335.49 248.37 316.35 178.36ZM156.06 339.12C148.14 348.3 127.83 369.19 103.65 373.94C103.63 373.94 103.62 373.93 103.63 373.92C106.94 370.1 111.2 364.55 116.17 356.74C116.53 356.17 116.89 355.61 117.23 355.05C117.34 354.88 117.44 354.7 117.55 354.53C127.9 337.07 125.65 323.86 121.88 315.79C118.16 308.98 112.86 303.54 109.04 300.16C109.02 300.14 109 300.11 108.97 300.09C108.21 299.39 107.35 298.69 106.46 298C105.09 296.9 104.23 296.32 104.23 296.32V296.34C103.08 295.52 101.89 294.71 100.67 293.93C90.77 286.98 81.39 283.41 81.32 283.39C75.18 280.19 69 277.05 62.98 273.62C55.61 269.41 48.82 264.43 45.17 256.32C40.05 244.94 42.99 235.79 53.82 229.26C55.66 228.14 57.57 226.88 58.87 225.25C59.87 224.02 60.83 221.69 60.32 220.47C55.56 209.39 58.74 204.17 70.73 204.3C69.93 202.29 68.97 200.43 68.43 198.46C67.05 193.61 69.77 189.96 74.78 189.67C85.12 189.09 88.98 183.92 86.39 173.9C85.4 170.04 83.94 166.32 82.96 162.47C81.43 156.28 84.25 152.63 90.62 152.29C96.9 151.95 103.21 151.91 109.48 151.5C109.51 151.5 109.54 151.5 109.57 151.5C140.72 150.71 142.82 141.5 152.99 124.22C160.23 111.91 170.71 102.61 176.13 98.28C177.81 96.94 180.32 97.69 180.95 99.72C181.4 101.18 181.86 102.68 182.33 104.25C185.26 114.12 188.38 125.94 191.09 139.12C197.87 171.89 202.15 212.97 195.11 253.26C193.88 260.34 192.26 267.39 190.29 274.36C189.16 278.29 187.93 282.2 186.53 286.06C186.22 286.95 185.91 287.84 185.57 288.75C185.06 290.13 184.51 291.52 183.95 292.9C180.8 300.75 177.03 308.4 172.62 315.85L172.67 315.83C172.66 315.8 167.18 325.95 156.06 339.12Z" fill="url(#paint0_linear)"/>
<defs>
<linearGradient id="paint0_linear" x1="195.758" y1="104.158" x2="119.386" y2="389.184" gradientUnits="userSpaceOnUse">
<stop stop-color="#4B78B3"/>
<stop offset="0.2048" stop-color="#4F81BA"/>
<stop offset="0.5387" stop-color="#5B99CC"/>
<stop offset="0.9581" stop-color="#6FC1EB"/>
<stop offset="1" stop-color="#71C5EE"/>
</linearGradient>
</defs>
</svg>
