<?xml version="1.0" encoding="utf-8"?>
<!-- Generator: Adobe Illustrator 22.1.0, SVG Export Plug-In . SVG Version: 6.00 Build 0)  -->
<svg version="1.1" id="Layer_1" xmlns="http://www.w3.org/2000/svg" xmlns:xlink="http://www.w3.org/1999/xlink" x="0px" y="0px"
	 viewBox="0 0 22 20" style="enable-background:new 0 0 22 20;" xml:space="preserve">
<style type="text/css">
	.st0{clip-path:url(#SVGID_2_);}
	.st1{clip-path:url(#SVGID_4_);fill:#8E8E8E;}
	.st2{clip-path:url(#SVGID_4_);fill:none;stroke:#8E8E8E;stroke-width:0.3;}
	.st3{clip-path:url(#SVGID_4_);fill:none;stroke:#8E8E8E;}
	.st4{clip-path:url(#SVGID_4_);fill:#8F908F;}
	.st5{clip-path:url(#SVGID_4_);fill:none;stroke:#8F908F;stroke-miterlimit:10;}
	.st6{fill:none;stroke:#527CAA;stroke-width:2;}
	.st7{clip-path:url(#SVGID_6_);fill:none;stroke:#527CAA;stroke-width:1.036;stroke-miterlimit:10;}
	.st8{clip-path:url(#SVGID_6_);fill:none;stroke:#527CAA;stroke-width:1.3814;stroke-miterlimit:10;}
	.st9{fill:none;}
	.st10{clip-path:url(#SVGID_8_);fill:#8E8E8E;}
	.st11{fill:none;stroke:#8E8E8E;stroke-miterlimit:10;}
	.st12{fill:none;stroke:#8E8E8E;stroke-width:0.7856;stroke-miterlimit:10;}
	.st13{fill:none;stroke:#8E8E8E;stroke-width:0.8594;stroke-miterlimit:10;}
	.st14{fill:none;stroke:#527CAA;}
	.st15{fill:#527CAA;}
	.st16{clip-path:url(#SVGID_10_);fill:#527CAA;}
	.st17{fill:none;stroke:#527CAA;stroke-width:0.9215;stroke-miterlimit:10;}
	.st18{fill:none;stroke:#527CAA;stroke-width:0.724;stroke-miterlimit:10;}
	.st19{fill:none;stroke:#527CAA;stroke-width:0.7919;stroke-miterlimit:10;}
	.st20{fill:#222222;stroke:#222222;stroke-width:0.4857;stroke-miterlimit:10;}
	.st21{fill:none;stroke:#222222;stroke-width:1.1728;stroke-miterlimit:10;}
	.st22{fill:none;stroke:#222222;stroke-width:1.2074;stroke-miterlimit:10;}
	.st23{fill:none;stroke:#222222;stroke-width:1.2367;stroke-miterlimit:10;}
</style>
<g>
	<path class="st20" d="M16.7,15.6c0.5,0,1.1,0.2,1.4,0.6c0.4,0.4,0.6,0.9,0.6,1.4c0,0.5-0.2,1.1-0.6,1.4c-0.4,0.4-0.9,0.6-1.4,0.6
		c-0.5,0-1.1-0.2-1.4-0.6c-0.4-0.4-0.6-0.9-0.6-1.4c0-0.5,0.2-1.1,0.6-1.4C15.6,15.8,16.1,15.6,16.7,15.6z M16.7,16.6
		c-0.3,0-0.5,0.1-0.7,0.3c-0.2,0.2-0.3,0.4-0.3,0.7c0,0.3,0.1,0.5,0.3,0.7c0.2,0.2,0.4,0.3,0.7,0.3c0.3,0,0.5-0.1,0.7-0.3
		c0.2-0.2,0.3-0.4,0.3-0.7c0-0.3-0.1-0.5-0.3-0.7C17.2,16.8,17,16.6,16.7,16.6z M7.6,15.6c0.5,0,1.1,0.2,1.4,0.6
		c0.4,0.4,0.6,0.9,0.6,1.4c0,0.5-0.2,1.1-0.6,1.4s-0.9,0.6-1.4,0.6c-0.5,0-1.1-0.2-1.4-0.6c-0.4-0.4-0.6-0.9-0.6-1.4
		c0-0.5,0.2-1.1,0.6-1.4C6.5,15.8,7,15.6,7.6,15.6z M7.6,16.6c-0.3,0-0.5,0.1-0.7,0.3c-0.2,0.2-0.3,0.4-0.3,0.7
		c0,0.3,0.1,0.5,0.3,0.7c0.2,0.2,0.4,0.3,0.7,0.3c0.3,0,0.5-0.1,0.7-0.3c0.2-0.2,0.3-0.4,0.3-0.7c0-0.3-0.1-0.5-0.3-0.7
		C8.1,16.8,7.8,16.6,7.6,16.6z M18.7,3.5H4.8l2.6,6.1h8.3c0.2,0,0.3,0,0.5-0.1c0.1-0.1,0.3-0.2,0.4-0.3l3-4h0
		c0.1-0.2,0.2-0.3,0.2-0.5c0-0.2,0-0.4-0.1-0.5c-0.1-0.2-0.2-0.3-0.4-0.4C19.1,3.5,18.9,3.5,18.7,3.5z M15.7,10.6H7.4l-0.8,1.6
		l-0.1,0.4c0,0.3,0.1,0.5,0.3,0.7c0.2,0.2,0.4,0.3,0.7,0.3h11.1v1H7.6c-0.4,0-0.7-0.1-1-0.3c-0.3-0.2-0.6-0.4-0.7-0.7
		c-0.2-0.3-0.3-0.6-0.3-1c0-0.4,0.1-0.7,0.3-1l0.7-1.5L2.9,1.5H1.5v-1h2l0.9,2h14.3c0.4,0,0.8,0.1,1.1,0.3c0.3,0.2,0.6,0.5,0.7,0.8
		c0.2,0.3,0.2,0.7,0.2,1.1c0,0.4-0.2,0.7-0.4,1l-2.9,3.9c-0.2,0.3-0.4,0.5-0.7,0.6C16.3,10.5,16,10.6,15.7,10.6z"/>
	<path class="st21" d="M5.6,6.5h13.8H5.6z"/>
	<path class="st22" d="M9.1,2.7l1.5,7.4L9.1,2.7z"/>
	<path class="st23" d="M15.3,2.7l-1.5,7.4L15.3,2.7z"/>
</g>
</svg>
