<svg width="216" height="104" viewBox="0 0 216 104" fill="none" xmlns="http://www.w3.org/2000/svg">
<path d="M59.6009 41.1855H78.4097C78.5165 41.1855 78.6024 41.0996 78.6024 40.994V39.3477C78.6024 39.2422 78.5165 39.1562 78.4097 39.1562H64.2144V26.7325H72.8975C73.0043 26.7325 73.0903 26.6465 73.0903 26.541V24.8922C73.0903 24.7867 73.0043 24.7007 72.8975 24.7007H64.2144V12.7067H78.4097C78.5165 12.7067 78.6024 12.6207 78.6024 12.5151V10.8689C78.6024 10.7633 78.5165 10.6774 78.4097 10.6774H59.6009C59.4941 10.6774 59.4082 10.7633 59.4082 10.8689V40.9915C59.4082 41.0996 59.4941 41.1855 59.6009 41.1855Z" fill="white"/>
<path d="M91.91 27.3231C91.4447 27.2003 90.9758 27.0874 90.5093 26.9695C89.4376 26.7068 88.3278 26.4343 87.2671 26.0893C85.7215 25.5823 84.9432 24.6665 84.8904 23.294C84.8363 21.892 85.7227 20.6128 87.1492 20.0297C89.7617 18.9751 92.239 19.3753 94.5237 21.2352C94.7496 21.4181 94.9718 21.6047 95.194 21.7889L95.5488 22.0835C95.6298 22.151 95.7501 22.151 95.8323 22.0848L96.5382 21.5004C96.5861 21.4599 96.6168 21.4034 96.618 21.342C96.6217 21.2782 96.5947 21.2168 96.5493 21.1738C95.48 20.1598 94.5347 19.5546 93.9234 19.2219C93.9209 19.2219 93.8988 19.2108 93.8988 19.2084C93.4654 18.9764 93.2003 18.8794 93.1868 18.8757C93.1843 18.8745 93.1831 18.872 93.1794 18.872C92.1605 18.4558 91.0077 18.2349 89.8427 18.2349C87.5114 18.2349 85.4084 19.0807 84.0764 20.5539C82.5321 22.2615 81.9416 24.3927 82.4535 26.3987C82.9556 28.3715 84.4607 29.9343 86.5808 30.693C87.4782 31.0146 88.41 31.2884 89.3074 31.5511C90.5842 31.928 91.9014 32.3172 93.1328 32.8414C94.1812 33.2882 94.9141 34.0727 95.1977 35.0597C95.48 36.0381 95.2787 37.0804 94.6342 37.995C93.9369 38.9869 92.7939 39.8377 91.7259 40.163C89.769 40.7621 87.9116 40.6983 86.2236 39.9555C86.2199 39.9519 86.2113 39.9506 86.2039 39.9482L86.0628 39.8782C85.212 39.4645 84.4631 38.9059 83.9844 38.5155C83.756 38.3277 83.5387 38.1325 83.3362 37.9434C83.1704 37.7888 83.0108 37.6378 82.877 37.5027C82.8328 37.4585 82.7727 37.4327 82.7088 37.4364C82.645 37.4401 82.5873 37.4708 82.5468 37.5187L82.4952 37.5837C82.4744 37.596 82.4535 37.6132 82.4412 37.6304C82.3467 37.7507 82.2509 37.871 82.1552 37.9889C82.1454 38.0011 82.1368 38.0122 82.1319 38.0232L81.987 38.1988C81.9146 38.2872 81.9232 38.4173 82.0066 38.4959C82.5517 39.0053 83.1127 39.4682 83.7204 39.9003C84.1071 40.2035 84.5282 40.4773 85.0438 40.756C85.1973 40.8431 85.3372 40.918 85.4526 40.9757C85.6257 41.0653 85.7338 41.1181 85.7865 41.1402C85.7878 41.1414 85.8123 41.1513 85.816 41.1525C85.8197 41.1525 85.8197 41.1525 85.8197 41.1525C85.8221 41.155 85.8271 41.1586 85.832 41.1611C85.8393 41.1635 85.8442 41.166 85.8528 41.1672C86.9577 41.6276 88.1596 41.8596 89.4277 41.8596C89.8108 41.8596 90.2097 41.8375 90.6087 41.7945C94.6268 41.3661 97.5277 38.3915 97.826 34.3943C98.101 30.7445 96.1663 28.4292 91.91 27.3231Z" fill="white"/>
<path d="M162.426 11.9923H162.379C161.62 12.0034 160.873 12.3311 160.325 12.8922C159.778 13.4532 159.481 14.1738 159.496 14.9239C159.522 16.4793 160.838 17.7438 162.427 17.7438H162.478C164.131 17.7144 165.357 16.4622 165.331 14.8269C165.301 13.2371 164.026 11.9923 162.426 11.9923Z" fill="white"/>
<path d="M164.633 19.9878H160.284C160.163 19.9878 160.063 20.0836 160.063 20.2002V40.9743C160.063 41.091 160.161 41.1855 160.283 41.1855H164.636C164.757 41.1855 164.856 41.091 164.856 40.9743V20.2026C164.856 20.0848 164.755 19.9878 164.633 19.9878Z" fill="white"/>
<path d="M155.941 19.9926H149.355V12.3997C149.355 12.2794 149.253 12.1812 149.13 12.1812C149.076 12.1812 149.021 12.2033 148.979 12.2401L144.474 16.3858C144.449 16.4423 144.427 16.4926 144.401 16.5491V19.9926H141.051C140.931 19.9926 140.829 20.0896 140.829 20.2124V20.9244C140.829 21.046 140.931 21.1442 141.051 21.1442H144.474V22.2552C144.474 24.0279 144.475 25.7994 144.475 27.5709C144.478 30.7345 144.479 33.8969 144.475 37.0593C144.474 38.8775 145.066 40.1235 146.292 40.8638C147.482 41.5795 148.734 41.9453 150.019 41.9453C150.838 41.9453 151.683 41.7956 152.528 41.4997C152.535 41.4997 152.539 41.4973 152.547 41.4948C153.035 41.3389 154.613 40.6968 154.682 40.6723C154.737 40.649 154.78 40.606 154.803 40.5544C154.825 40.4992 154.825 40.4378 154.803 40.385L154.502 39.6779C154.479 39.6214 154.434 39.5797 154.38 39.5576C154.323 39.5379 154.263 39.5379 154.207 39.5613C153.788 39.7442 153.313 39.9173 152.795 40.0744C152.785 40.0769 152.775 40.0793 152.765 40.0793C152.744 40.0879 152.726 40.0953 152.705 40.1027C152.683 40.1076 152.66 40.1162 152.646 40.1198C151.917 40.3335 151.373 40.4501 151.323 40.4599C151.114 40.4943 150.926 40.5115 150.761 40.5115C149.864 40.5115 149.409 40.0781 149.403 37.71C149.397 32.6103 149.399 26.2389 149.403 21.1454H155.94C156.062 21.1454 156.159 21.0472 156.159 20.9257V20.2136C156.16 20.0909 156.063 19.9926 155.941 19.9926Z" fill="white"/>
<path d="M115.775 19.9926H109.189V12.3997C109.189 12.2794 109.087 12.1812 108.964 12.1812C108.91 12.1812 108.855 12.2033 108.813 12.2401L104.308 16.3858C104.283 16.4423 104.261 16.4926 104.235 16.5491V19.9926H100.885C100.765 19.9926 100.663 20.0896 100.663 20.2124V20.9244C100.663 21.046 100.765 21.1442 100.885 21.1442H104.308V22.2552C104.308 24.0279 104.309 25.7994 104.309 27.5709C104.311 30.7345 104.312 33.8969 104.309 37.0593C104.308 38.8775 104.899 40.1235 106.126 40.8638C107.315 41.5795 108.568 41.9453 109.853 41.9453C110.672 41.9453 111.516 41.7956 112.362 41.4997C112.368 41.4997 112.373 41.4973 112.381 41.4948C112.869 41.3389 114.448 40.6968 114.515 40.6723C114.571 40.649 114.614 40.606 114.637 40.5544C114.659 40.4992 114.659 40.4378 114.637 40.385L114.336 39.6779C114.313 39.6214 114.267 39.5797 114.213 39.5576C114.157 39.5379 114.097 39.5379 114.04 39.5613C113.622 39.7442 113.147 39.9173 112.629 40.0744C112.619 40.0769 112.609 40.0793 112.599 40.0793C112.578 40.0879 112.56 40.0953 112.539 40.1027C112.517 40.1076 112.494 40.1162 112.48 40.1198C111.751 40.3335 111.207 40.4501 111.157 40.4599C110.948 40.4943 110.76 40.5115 110.594 40.5115C109.698 40.5115 109.243 40.0781 109.237 37.71C109.23 32.6103 109.233 26.2389 109.237 21.1454H115.774C115.895 21.1454 115.992 21.0472 115.992 20.9257V20.2136C115.995 20.0909 115.898 19.9926 115.775 19.9926Z" fill="white"/>
<path d="M133.757 19.7326C130.795 17.8359 127.579 17.6616 124.49 19.2268C120.98 21.0081 118.648 24.6125 118.25 28.8613C117.84 33.2526 119.54 37.3628 122.798 39.8586C124.519 41.1758 126.572 41.8707 128.735 41.8707C131.553 41.8707 134.225 40.6823 136.076 38.6051C136.09 38.599 136.102 38.588 136.113 38.5757C136.148 38.5401 136.962 37.6635 137.917 35.9424C137.974 35.8405 137.942 35.7128 137.842 35.649L137.249 35.2758C137.151 35.2156 137.017 35.2402 136.951 35.3335L136.173 36.4126C135.997 36.6434 135.821 36.8717 135.641 37.0964C133.625 39.5713 131.21 40.7106 128.231 40.5694C126.422 40.4834 125.184 39.6474 124.545 38.0822C123.406 35.2819 123.459 32.3638 123.519 29.2751C123.526 28.8884 123.535 28.5016 123.539 28.1088H137.88C137.942 28.1088 137.999 28.0867 138.041 28.0413C138.082 27.9983 138.107 27.9382 138.103 27.8805C137.914 24.1484 136.49 21.4832 133.757 19.7326ZM123.596 26.8382C123.644 25.0139 123.854 23.1111 124.863 21.4243C125.64 20.1205 126.89 19.4601 128.574 19.4601C128.724 19.4601 128.88 19.465 129.035 19.4748C130.708 19.5902 131.875 20.5416 132.317 22.1437C132.612 23.1982 132.81 24.2921 133.02 25.446C133.099 25.899 133.184 26.3619 133.275 26.8382H123.596Z" fill="white"/>
<path d="M190.389 40.7643L180.473 28.1405L180.685 27.9158L188.524 20.3646C188.587 20.302 188.609 20.2087 188.576 20.1252C188.544 20.0417 188.464 19.9865 188.377 19.9865H186.937C186.883 19.9865 186.83 20.0061 186.79 20.0442L186.564 20.259C186.556 20.2664 186.549 20.2713 186.541 20.2787C185.477 21.2866 184.411 22.2981 183.342 23.3134L175.449 30.8069V12.4009C175.449 12.2806 175.353 12.1824 175.235 12.1824H175.185C175.133 12.1824 175.08 12.2045 175.041 12.2413L170.865 16.1992C170.841 16.2532 170.822 16.2999 170.8 16.3527V40.9669C170.8 41.0872 170.895 41.1842 171.012 41.1842H175.236C175.353 41.1842 175.449 41.086 175.449 40.9669V32.9418L176.988 31.4662L183.821 40.2291C183.873 40.2868 183.923 40.3506 183.975 40.4206C184.096 40.5765 184.225 40.7386 184.345 40.8564L184.557 41.1069C184.596 41.1547 184.656 41.1842 184.719 41.1842H190.296C190.39 41.1842 190.478 41.124 190.502 41.0307C190.53 40.9264 190.389 40.7643 190.389 40.7643Z" fill="white"/>
<path d="M211.849 23.4373C211.849 23.4189 211.845 23.4005 211.839 23.3673L211.838 23.333C211.838 23.3084 211.831 23.2851 211.825 23.2642C211.664 22.0452 210.443 20.6677 209.361 19.8894C207.888 18.8275 205.781 18.2456 203.424 18.2456C201.726 18.2456 200.012 18.5623 198.584 19.1418C198.562 19.1467 198.543 19.1516 198.522 19.1602C198.492 19.1737 198.465 19.1872 198.438 19.1983L198.389 19.2228C197.96 19.4057 197.551 19.6206 197.171 19.8563C197.149 19.8649 197.126 19.8771 197.105 19.8931L197.003 19.9692C196.982 19.9815 196.966 19.9913 196.954 19.9999L196.904 20.0318C196.871 20.0539 196.837 20.0736 196.808 20.0944C196.804 20.0981 196.799 20.1006 196.792 20.1067C196.017 20.615 195.521 21.0459 195.502 21.0618C195.412 21.1404 195.401 21.2779 195.482 21.3687L196.04 22.0071C196.079 22.0513 196.133 22.082 196.195 22.0832C196.253 22.0869 196.312 22.0673 196.356 22.0255C198.038 20.4959 200.098 19.6807 202.654 19.5395C202.781 19.5334 202.908 19.5297 203.033 19.5297C205.343 19.5297 206.923 20.7574 207.157 22.7388C207.178 22.9352 207.191 23.1414 207.202 23.3391L207.215 23.5576V27.9231L207.21 28.1355C207.21 28.2509 207.204 28.3675 207.204 28.4829C207.102 28.4903 207.004 28.4964 206.908 28.5026C206.627 28.5222 206.373 28.5418 206.12 28.5517C202.94 28.6695 199.848 28.8856 196.892 30.209C193.832 31.5778 192.551 33.984 193.08 37.3588C193.484 39.9442 195.364 41.4579 198.673 41.8519C199.29 41.9256 199.887 41.9649 200.447 41.9649C203.186 41.9649 205.405 41.0712 207.215 39.2334V40.9607C207.215 41.0822 207.315 41.1817 207.438 41.1817H211.741C211.863 41.1817 211.961 41.0834 211.961 40.9631C211.961 39.4273 211.971 37.894 211.98 36.3632C212.006 32.1241 212.032 27.739 211.849 23.4373ZM207.217 36.3988C207.214 36.4442 207.21 36.4871 207.207 36.535C207.204 36.5731 207.204 36.616 207.199 36.659C207.009 38.4244 204.53 40.4794 201.618 40.4794C200.853 40.4794 200.173 40.3027 199.655 39.9749C199.509 39.8853 199.364 39.7662 199.224 39.6299C198.119 38.5385 197.687 36.5313 198.127 34.5094C198.522 32.6974 199.522 31.3311 200.802 30.856C202.192 30.3428 203.688 30.0985 205.273 29.8456C205.906 29.7413 206.556 29.6369 207.215 29.5129L207.217 36.3988Z" fill="white"/>
<path d="M124.662 52.1233H122.825C122.752 52.1233 122.694 52.1773 122.694 52.2448V56.0677L122.769 57.493C121.896 56.8706 121.08 56.4912 119.906 56.4912C116.789 56.4912 115.106 59.2448 115.106 61.8364C115.106 65.1093 116.862 67.1398 119.685 67.1398C121.095 67.1398 122.259 66.3566 122.897 65.8127L123.027 66.7887C123.034 66.8501 123.091 66.8955 123.158 66.8955H124.662C124.735 66.8955 124.794 66.8415 124.794 66.774V52.2436C124.792 52.1761 124.733 52.1233 124.662 52.1233ZM122.693 64.1959C121.833 65.0774 121.003 65.4886 120.081 65.4886C118.282 65.4886 117.249 64.1505 117.249 61.8155C117.249 59.6843 118.496 58.1412 120.213 58.1412C121.103 58.1412 121.869 58.442 122.692 59.1123V64.1959H122.693Z" fill="white"/>
<path d="M133.653 56.7024C133.275 56.5514 132.929 56.49 132.451 56.49C131.299 56.49 130.215 57.1615 129.438 58.3437L129.307 56.846C129.304 56.7834 129.246 56.7343 129.179 56.7343H127.672C127.6 56.7343 127.542 56.7883 127.542 56.8558V66.7727C127.542 66.8402 127.6 66.8943 127.672 66.8943H129.487C129.559 66.8943 129.618 66.8402 129.618 66.7727V60.4295C130.488 58.4567 131.716 58.2418 132.205 58.2418C132.638 58.2418 132.87 58.3008 133.208 58.399C133.242 58.4088 133.279 58.4039 133.313 58.3879C133.343 58.3695 133.366 58.3425 133.373 58.3081L133.729 56.8399C133.743 56.7846 133.71 56.7269 133.653 56.7024Z" fill="white"/>
<path d="M136.144 64.3262C135.314 64.3262 134.686 64.94 134.686 65.7527C134.686 66.531 135.328 67.1387 136.144 67.1387C136.951 67.1387 137.584 66.531 137.584 65.7527C137.584 64.9388 136.963 64.3262 136.144 64.3262Z" fill="white"/>
<path d="M152.865 53.2664H150.784C150.725 53.2664 150.678 53.2995 150.658 53.3486L145.751 66.736C145.736 66.7729 145.742 66.8146 145.768 66.8453C145.793 66.8772 145.832 66.8956 145.876 66.8956H147.755C147.812 66.8956 147.863 66.8625 147.88 66.8109L149.246 62.8125H154.338L155.68 66.8085C155.697 66.86 155.748 66.8944 155.807 66.8944H157.775C157.816 66.8944 157.857 66.876 157.883 66.8441C157.907 66.8134 157.913 66.7716 157.9 66.7348L152.99 53.3474C152.973 53.2995 152.922 53.2664 152.865 53.2664ZM153.791 61.2031H149.79L150.425 59.3235C150.905 57.9768 151.348 56.5896 151.782 55.0894C152.278 56.7381 152.706 58.0542 153.159 59.3211L153.791 61.2031Z" fill="white"/>
<path d="M173.761 52.2155C173.428 52.0891 172.747 51.8804 171.919 51.8804C169.809 51.8804 168.647 53.0884 168.647 55.2859V56.7443L167.308 56.8376C167.241 56.8413 167.188 56.8941 167.188 56.9579V58.2236C167.188 58.2911 167.245 58.3451 167.32 58.3451H168.649V66.7741C168.649 66.8417 168.708 66.8957 168.78 66.8957H170.593C170.667 66.8957 170.726 66.8417 170.726 66.7741V58.3451H172.872C172.945 58.3451 173.003 58.2911 173.003 58.2236V56.8572C173.003 56.7897 172.944 56.7357 172.872 56.7357H170.726V55.2846C170.726 54.0754 171.175 53.4874 172.1 53.4874C172.485 53.4874 172.886 53.5696 173.261 53.7231C173.293 53.7366 173.335 53.7366 173.369 53.7206C173.406 53.7059 173.43 53.6801 173.441 53.6445L173.84 52.3592C173.856 52.3002 173.823 52.2376 173.761 52.2155Z" fill="white"/>
<path d="M165.831 52.2155C165.497 52.0891 164.817 51.8804 163.989 51.8804C161.878 51.8804 160.716 53.0884 160.716 55.2859V56.7443L159.377 56.8376C159.309 56.8413 159.255 56.8941 159.255 56.9579V58.2236C159.255 58.2911 159.313 58.3451 159.388 58.3451H160.716V66.7741C160.716 66.8417 160.775 66.8957 160.848 66.8957H162.662C162.735 66.8957 162.793 66.8417 162.793 66.7741V58.3451H164.941C165.013 58.3451 165.072 58.2911 165.072 58.2236V56.8572C165.072 56.7897 165.013 56.7357 164.941 56.7357H162.793V55.2846C162.793 54.0754 163.243 53.4874 164.167 53.4874C164.555 53.4874 164.955 53.5696 165.33 53.7231C165.363 53.7366 165.403 53.7366 165.44 53.7206C165.476 53.7059 165.499 53.6801 165.511 53.6445L165.909 52.3592C165.925 52.3002 165.892 52.2376 165.831 52.2155Z" fill="white"/>
<path d="M179.528 56.49C178.133 56.49 176.687 56.9283 175.23 57.7937C175.174 57.8293 175.153 57.8993 175.187 57.957L175.895 59.1184C175.914 59.1491 175.946 59.1699 175.979 59.1773C176.014 59.1871 176.055 59.1798 176.084 59.1589C177.18 58.4689 178.233 58.1203 179.219 58.1203C180.567 58.1203 181.266 58.8802 181.297 60.3828C176.679 60.8702 174.706 62.0156 174.706 64.2033C174.706 65.96 176.021 67.1398 177.981 67.1398C179.125 67.1398 180.246 66.7064 181.5 65.7796L181.632 66.7887C181.638 66.8501 181.694 66.8955 181.762 66.8955H183.267C183.339 66.8955 183.399 66.8415 183.399 66.7739V60.691C183.398 57.9435 182.059 56.49 179.528 56.49ZM181.299 64.2904C180.373 65.0467 179.541 65.55 178.51 65.55C177.979 65.55 176.739 65.4051 176.739 64.078C176.739 62.8148 178.104 62.1065 181.299 61.7271V64.2904Z" fill="white"/>
<path d="M191.609 56.49C190.065 56.49 188.941 57.2695 188.046 58.0761L187.914 56.8436C187.905 56.7834 187.851 56.7355 187.782 56.7355H186.28C186.206 56.7355 186.147 56.7895 186.147 56.8571V66.7739C186.147 66.8415 186.207 66.8955 186.28 66.8955H188.093C188.165 66.8955 188.225 66.8415 188.225 66.7739V59.6426C189.301 58.6531 190.003 58.1829 191.034 58.1829C192.37 58.1829 192.938 58.9391 192.938 60.7155V66.7752C192.938 66.8427 192.996 66.8967 193.07 66.8967H194.883C194.958 66.8967 195.014 66.8427 195.014 66.7752V60.4909C195.013 57.8355 193.868 56.49 191.609 56.49Z" fill="white"/>
<path d="M206.688 52.1233H204.851C204.777 52.1233 204.72 52.1773 204.72 52.2448V56.0677L204.795 57.493C203.924 56.8706 203.107 56.4912 201.934 56.4912C198.815 56.4912 197.133 59.2448 197.133 61.8364C197.133 65.1093 198.888 67.1398 201.711 67.1398C203.123 67.1398 204.286 66.3566 204.924 65.8127L205.055 66.7887C205.064 66.8501 205.12 66.8955 205.184 66.8955H206.689C206.764 66.8955 206.821 66.8415 206.821 66.774V52.2436C206.82 52.1761 206.763 52.1233 206.688 52.1233ZM204.72 64.1959C203.86 65.0774 203.029 65.4886 202.11 65.4886C200.308 65.4886 199.276 64.1505 199.276 61.8155C199.276 59.6843 200.525 58.1412 202.242 58.1412C203.132 58.1412 203.898 58.442 204.721 59.1123V64.1959H204.72Z" fill="white"/>
<path d="M211.513 56.7355H209.7C209.626 56.7355 209.567 56.7895 209.567 56.857V66.7739C209.567 66.8414 209.627 66.8954 209.7 66.8954H211.513C211.588 66.8954 211.646 66.8414 211.646 66.7739V56.857C211.646 56.7895 211.588 56.7355 211.513 56.7355Z" fill="white"/>
<path d="M210.608 54.9373C211.401 54.9373 212.001 54.4193 212.001 53.733C212.001 53.0369 211.414 52.5287 210.608 52.5287C209.8 52.5287 209.214 53.0357 209.214 53.733C209.214 54.4193 209.815 54.9373 210.608 54.9373Z" fill="white"/>
<path d="M47.0717 23.1232C47.0435 23.0176 47.0177 22.9145 46.9882 22.8089C46.8691 22.4185 46.75 22.0293 46.6101 21.65H46.6126C46.6126 21.65 46.6076 21.6402 46.599 21.6242C45.9103 19.7545 44.981 18.0113 43.8577 16.4288C43.7534 16.2778 43.649 16.133 43.5471 15.9967C43.5471 15.9967 43.2893 15.6039 43.0364 15.3154C42.9836 15.2552 42.9309 15.1975 42.8805 15.1509C42.8793 15.1472 42.8744 15.1423 42.8707 15.1386V15.1423C42.8437 15.1165 42.8167 15.0956 42.7921 15.0772C42.7676 15.0514 42.7369 15.0355 42.7001 15.0281C42.689 15.0244 42.6804 15.022 42.6694 15.0207C42.6632 15.0207 42.6595 15.017 42.6522 15.017C42.5441 15.017 42.457 15.1042 42.457 15.2098C42.457 15.2442 42.4668 15.2749 42.484 15.3006C42.4963 15.3424 42.5122 15.4013 42.5306 15.4664C42.678 15.9893 49.6141 42.79 28.781 46.0334C28.7798 46.0334 28.7749 46.0334 28.7761 46.0334C28.975 45.9168 41.5645 38.4785 38.0669 19.1014C38.0154 18.8141 37.9515 18.5269 37.8816 18.2433C37.5243 16.7934 36.3114 11.8092 35.3772 7.36024C35.1599 6.07613 34.9978 4.94424 34.8775 4.00632C34.7977 3.38514 34.7511 2.7615 34.7327 2.1354C34.7179 1.68362 34.6565 1.3227 34.5682 1.0342V1.03052L34.5669 1.03174C33.9531 -0.910386 31.8894 0.485446 31.8894 0.485446L29.9608 1.80516C28.1955 2.8904 26.2607 3.96213 24.2879 5.07806C21.053 6.79062 12.2521 11.7073 8.78766 18.4348C6.93392 22.0343 4.46145 28.6058 7.2617 37.5062C7.2617 37.5062 12.0507 51.8807 25.4836 51.8807C28.4042 51.8807 40.0668 52.2895 46.0442 39.4901C46.0442 39.4889 49.5626 32.2347 47.0717 23.1232ZM26.2091 44.0459C25.1779 45.2404 22.5348 47.9596 19.3884 48.5783C19.3859 48.5783 19.3847 48.5771 19.3859 48.5747C19.8168 48.0775 20.3717 47.3556 21.0174 46.3391C21.0641 46.2655 21.112 46.1918 21.1549 46.1194C21.1684 46.0973 21.1819 46.0739 21.1967 46.0518C22.5434 43.7795 22.2512 42.0596 21.7602 41.0099C21.2765 40.1236 20.5865 39.4164 20.0893 38.9757C20.0869 38.9733 20.0844 38.9696 20.0807 38.9659C19.9813 38.8751 19.8696 38.7842 19.7542 38.6934C19.5762 38.551 19.4645 38.4748 19.4645 38.4748V38.4773C19.3147 38.3705 19.1588 38.2649 19.0004 38.163C17.7114 37.2582 16.4911 36.7942 16.4825 36.7917C15.6833 36.3756 14.8792 35.9655 14.096 35.5199C13.136 34.9724 12.2533 34.3242 11.7782 33.2684C11.1116 31.7866 11.4946 30.5958 12.9039 29.7463C13.1446 29.6002 13.3925 29.4369 13.562 29.2233C13.6921 29.0625 13.8173 28.7593 13.7498 28.6009C13.1298 27.1597 13.5448 26.4795 15.1051 26.4955C15.0008 26.234 14.8768 25.9909 14.8056 25.7356C14.6263 25.1046 14.9799 24.6295 15.6318 24.5914C16.9785 24.5165 17.4794 23.8438 17.143 22.5388C17.0141 22.0367 16.8238 21.5518 16.6961 21.0521C16.4973 20.2468 16.8643 19.7705 17.693 19.7263C18.5106 19.6821 19.3319 19.6772 20.147 19.6232C20.1507 19.6232 20.1544 19.6232 20.1593 19.6232C24.213 19.52 24.4867 18.3206 25.8101 16.0728C26.753 14.4707 28.1169 13.2591 28.8216 12.6968C29.0401 12.5225 29.3666 12.6195 29.4489 12.8846C29.5078 13.0737 29.5667 13.2701 29.6281 13.4739C30.0087 14.7592 30.415 16.2975 30.7674 18.0125C31.6488 22.2773 32.2062 27.6237 31.2903 32.8682C31.1295 33.7889 30.9196 34.7072 30.663 35.6144C30.5157 36.1251 30.3561 36.6346 30.1744 37.1367C30.1339 37.2521 30.0934 37.3687 30.0492 37.4866C29.9829 37.667 29.9117 37.8463 29.838 38.0268C29.428 39.0481 28.937 40.0438 28.3636 41.0136L28.3698 41.0112C28.3686 41.0112 27.6565 42.3321 26.2091 44.0459Z" fill="white"/>
<path d="M8.41053 100V86.9575H12.8135C14.9225 86.9575 16.5505 87.5187 17.6975 88.641C18.8445 89.751 19.418 91.3605 19.418 93.4695C19.418 95.5785 18.8445 97.1942 17.6975 98.3165C16.5505 99.4388 14.9225 100 12.8135 100H8.41053ZM9.92753 98.705H12.7025C16.1065 98.705 17.8085 96.9598 17.8085 93.4695C17.8085 89.9915 16.1065 88.2525 12.7025 88.2525H9.92753V98.705ZM25.6745 100.167C24.7988 100.167 24.0403 99.9753 23.399 99.593C22.7577 99.2107 22.2582 98.6742 21.9005 97.9835C21.5552 97.2805 21.3825 96.4542 21.3825 95.5045C21.3825 94.5548 21.5552 93.7347 21.9005 93.044C22.2582 92.341 22.7577 91.7983 23.399 91.416C24.0403 91.0337 24.7988 90.8425 25.6745 90.8425C26.5378 90.8425 27.2902 91.0337 27.9315 91.416C28.5852 91.7983 29.0847 92.341 29.43 93.044C29.7877 93.7347 29.9665 94.5548 29.9665 95.5045C29.9665 96.4542 29.7877 97.2805 29.43 97.9835C29.0847 98.6742 28.5852 99.2107 27.9315 99.593C27.2902 99.9753 26.5378 100.167 25.6745 100.167ZM25.6745 98.964C26.5132 98.964 27.1853 98.668 27.691 98.076C28.1967 97.4717 28.4495 96.6145 28.4495 95.5045C28.4495 94.3822 28.1967 93.525 27.691 92.933C27.1853 92.341 26.5132 92.045 25.6745 92.045C24.8235 92.045 24.1452 92.341 23.6395 92.933C23.1462 93.525 22.8995 94.3822 22.8995 95.5045C22.8995 96.6145 23.1462 97.4717 23.6395 98.076C24.1452 98.668 24.8235 98.964 25.6745 98.964ZM32.2173 100V91.009H33.6788V92.5445C33.9748 91.9772 34.3941 91.5517 34.9368 91.268C35.4794 90.9843 36.0899 90.8425 36.7683 90.8425C38.9019 90.8425 39.9688 92.0265 39.9688 94.3945V100H38.4703V94.487C38.4703 93.6483 38.3038 93.0378 37.9708 92.6555C37.6501 92.2608 37.1321 92.0635 36.4168 92.0635C35.5904 92.0635 34.9306 92.3225 34.4373 92.8405C33.9563 93.3462 33.7158 94.0245 33.7158 94.8755V100H32.2173ZM42.9252 90.972L42.2407 90.417C42.512 90.1333 42.7032 89.8682 42.8142 89.6215C42.9375 89.3625 43.0115 89.1035 43.0362 88.8445H42.1667V86.9575H44.0537V88.2895C44.0537 88.7952 43.9735 89.2638 43.8132 89.6955C43.6528 90.1272 43.3568 90.5527 42.9252 90.972ZM50.2418 100.167C49.1811 100.167 48.3856 99.889 47.8553 99.334C47.3249 98.7667 47.0598 97.9527 47.0598 96.892V92.1745H45.3023V91.009H47.0598V88.2525H48.5583V91.009H51.4073V92.1745H48.5583V96.744C48.5583 97.447 48.7063 97.9835 49.0023 98.3535C49.2983 98.7112 49.7793 98.89 50.4453 98.89C50.6426 98.89 50.8399 98.8653 51.0373 98.816C51.2346 98.7667 51.4134 98.7173 51.5738 98.668L51.8328 99.815C51.6724 99.9013 51.4381 99.9815 51.1298 100.056C50.8214 100.13 50.5254 100.167 50.2418 100.167ZM60.24 100L56.8915 91.009H58.464L60.9985 98.2425L63.6255 91.009H64.902L67.492 98.261L70.0635 91.009H71.562L68.195 100H66.7705L64.236 93.0255L61.683 100H60.24ZM77.0192 100.167C76.1436 100.167 75.3851 99.9753 74.7437 99.593C74.1024 99.2107 73.6029 98.6742 73.2452 97.9835C72.8999 97.2805 72.7272 96.4542 72.7272 95.5045C72.7272 94.5548 72.8999 93.7347 73.2452 93.044C73.6029 92.341 74.1024 91.7983 74.7437 91.416C75.3851 91.0337 76.1436 90.8425 77.0192 90.8425C77.8826 90.8425 78.6349 91.0337 79.2762 91.416C79.9299 91.7983 80.4294 92.341 80.7747 93.044C81.1324 93.7347 81.3112 94.5548 81.3112 95.5045C81.3112 96.4542 81.1324 97.2805 80.7747 97.9835C80.4294 98.6742 79.9299 99.2107 79.2762 99.593C78.6349 99.9753 77.8826 100.167 77.0192 100.167ZM77.0192 98.964C77.8579 98.964 78.5301 98.668 79.0357 98.076C79.5414 97.4717 79.7942 96.6145 79.7942 95.5045C79.7942 94.3822 79.5414 93.525 79.0357 92.933C78.5301 92.341 77.8579 92.045 77.0192 92.045C76.1682 92.045 75.4899 92.341 74.9842 92.933C74.4909 93.525 74.2442 94.3822 74.2442 95.5045C74.2442 96.6145 74.4909 97.4717 74.9842 98.076C75.4899 98.668 76.1682 98.964 77.0192 98.964ZM83.562 100V91.009H85.0235V92.6185C85.5045 91.5332 86.4912 90.935 87.9835 90.824L88.52 90.7685L88.631 92.0635L87.6875 92.1745C86.8365 92.2485 86.189 92.5198 85.745 92.9885C85.301 93.4448 85.079 94.0738 85.079 94.8755V100H83.562ZM90.1924 100V91.009H91.6539V92.6185C92.1349 91.5332 93.1215 90.935 94.6139 90.824L95.1504 90.7685L95.2614 92.0635L94.3179 92.1745C93.4669 92.2485 92.8194 92.5198 92.3754 92.9885C91.9314 93.4448 91.7094 94.0738 91.7094 94.8755V100H90.1924ZM98.4188 103.33L99.9543 99.852L96.1618 91.009H97.7898L100.768 98.298L103.765 91.009H105.338L99.9913 103.33H98.4188ZM116.188 100.167C115.473 100.167 114.844 100.006 114.301 99.6855C113.771 99.3648 113.37 98.927 113.099 98.372V100H111.637V86.9575H113.136V92.563C113.395 92.0327 113.796 91.6133 114.338 91.305C114.881 90.9967 115.498 90.8425 116.188 90.8425C116.99 90.8425 117.687 91.0337 118.279 91.416C118.883 91.786 119.346 92.3225 119.666 93.0255C119.999 93.7162 120.166 94.5425 120.166 95.5045C120.166 96.4542 119.999 97.2805 119.666 97.9835C119.346 98.6742 118.883 99.2107 118.279 99.593C117.687 99.9753 116.99 100.167 116.188 100.167ZM115.874 98.964C116.712 98.964 117.385 98.668 117.89 98.076C118.396 97.4717 118.649 96.6145 118.649 95.5045C118.649 94.3822 118.396 93.525 117.89 92.933C117.385 92.341 116.712 92.045 115.874 92.045C115.035 92.045 114.363 92.341 113.857 92.933C113.352 93.525 113.099 94.3822 113.099 95.5045C113.099 96.6145 113.352 97.4717 113.857 98.076C114.363 98.668 115.035 98.964 115.874 98.964ZM126.474 100.167C125.056 100.167 123.934 99.7533 123.107 98.927C122.281 98.0883 121.868 96.9537 121.868 95.523C121.868 94.598 122.053 93.784 122.423 93.081C122.793 92.3657 123.299 91.8168 123.94 91.4345C124.594 91.0398 125.346 90.8425 126.197 90.8425C127.418 90.8425 128.374 91.2372 129.064 92.0265C129.755 92.8035 130.1 93.8765 130.1 95.2455V95.819H123.329C123.379 96.8427 123.675 97.6258 124.217 98.1685C124.76 98.6988 125.512 98.964 126.474 98.964C127.017 98.964 127.535 98.8838 128.028 98.7235C128.522 98.5508 128.99 98.2733 129.434 97.891L129.952 98.9455C129.545 99.3278 129.027 99.63 128.398 99.852C127.769 100.062 127.128 100.167 126.474 100.167ZM126.234 91.9525C125.383 91.9525 124.711 92.2177 124.217 92.748C123.724 93.2783 123.434 93.9752 123.348 94.8385H128.805C128.768 93.9258 128.528 93.2167 128.084 92.711C127.652 92.2053 127.036 91.9525 126.234 91.9525ZM141.572 100.167C140.856 100.167 140.227 100.006 139.685 99.6855C139.154 99.3648 138.753 98.927 138.482 98.372V100H137.021V86.9575H138.519V92.563C138.778 92.0327 139.179 91.6133 139.722 91.305C140.264 90.9967 140.881 90.8425 141.572 90.8425C142.373 90.8425 143.07 91.0337 143.662 91.416C144.266 91.786 144.729 92.3225 145.05 93.0255C145.383 93.7162 145.549 94.5425 145.549 95.5045C145.549 96.4542 145.383 97.2805 145.05 97.9835C144.729 98.6742 144.266 99.2107 143.662 99.593C143.07 99.9753 142.373 100.167 141.572 100.167ZM141.257 98.964C142.096 98.964 142.768 98.668 143.274 98.076C143.779 97.4717 144.032 96.6145 144.032 95.5045C144.032 94.3822 143.779 93.525 143.274 92.933C142.768 92.341 142.096 92.045 141.257 92.045C140.418 92.045 139.746 92.341 139.241 92.933C138.735 93.525 138.482 94.3822 138.482 95.5045C138.482 96.6145 138.735 97.4717 139.241 98.076C139.746 98.668 140.418 98.964 141.257 98.964ZM151.858 100.167C150.439 100.167 149.317 99.7533 148.491 98.927C147.664 98.0883 147.251 96.9537 147.251 95.523C147.251 94.598 147.436 93.784 147.806 93.081C148.176 92.3657 148.682 91.8168 149.323 91.4345C149.977 91.0398 150.729 90.8425 151.58 90.8425C152.801 90.8425 153.757 91.2372 154.448 92.0265C155.138 92.8035 155.484 93.8765 155.484 95.2455V95.819H148.713C148.762 96.8427 149.058 97.6258 149.601 98.1685C150.143 98.6988 150.896 98.964 151.858 98.964C152.4 98.964 152.918 98.8838 153.412 98.7235C153.905 98.5508 154.374 98.2733 154.818 97.891L155.336 98.9455C154.929 99.3278 154.411 99.63 153.782 99.852C153.153 100.062 152.511 100.167 151.858 100.167ZM151.617 91.9525C150.766 91.9525 150.094 92.2177 149.601 92.748C149.107 93.2783 148.817 93.9752 148.731 94.8385H154.189C154.152 93.9258 153.911 93.2167 153.467 92.711C153.035 92.2053 152.419 91.9525 151.617 91.9525ZM160.483 100.167C159.866 100.167 159.311 100.049 158.818 99.815C158.337 99.5683 157.955 99.2353 157.671 98.816C157.387 98.3967 157.245 97.928 157.245 97.41C157.245 96.7563 157.412 96.2383 157.745 95.856C158.09 95.4737 158.651 95.2023 159.428 95.042C160.218 94.8693 161.291 94.783 162.647 94.783H163.239V94.2095C163.239 93.4448 163.079 92.896 162.758 92.563C162.45 92.2177 161.951 92.045 161.26 92.045C160.717 92.045 160.193 92.1252 159.687 92.2855C159.182 92.4335 158.664 92.6802 158.133 93.0255L157.615 91.934C158.084 91.601 158.651 91.3358 159.317 91.1385C159.996 90.9412 160.643 90.8425 161.26 90.8425C162.419 90.8425 163.276 91.1262 163.831 91.6935C164.399 92.2608 164.682 93.1427 164.682 94.339V100H163.276V98.446C163.042 98.9763 162.678 99.3957 162.185 99.704C161.704 100.012 161.137 100.167 160.483 100.167ZM160.723 99.038C161.463 99.038 162.068 98.7852 162.536 98.2795C163.005 97.7615 163.239 97.1078 163.239 96.3185V95.7635H162.666C161.667 95.7635 160.878 95.8128 160.298 95.9115C159.731 95.9978 159.33 96.1582 159.095 96.3925C158.873 96.6145 158.762 96.9228 158.762 97.3175C158.762 97.8232 158.935 98.2363 159.28 98.557C159.638 98.8777 160.119 99.038 160.723 99.038ZM170.644 100.167C168.486 100.167 167.407 98.9763 167.407 96.596V91.009H168.905V96.5775C168.905 97.3792 169.066 97.9712 169.386 98.3535C169.719 98.7358 170.237 98.927 170.94 98.927C171.705 98.927 172.328 98.6742 172.809 98.1685C173.29 97.6505 173.53 96.966 173.53 96.115V91.009H175.029V100H173.567V98.483C173.284 99.0257 172.883 99.445 172.365 99.741C171.859 100.025 171.286 100.167 170.644 100.167ZM181.44 100.167C180.379 100.167 179.584 99.889 179.054 99.334C178.523 98.7667 178.258 97.9527 178.258 96.892V92.1745H176.501V91.009H178.258V88.2525H179.757V91.009H182.606V92.1745H179.757V96.744C179.757 97.447 179.905 97.9835 180.201 98.3535C180.497 98.7112 180.978 98.89 181.644 98.89C181.841 98.89 182.038 98.8653 182.236 98.816C182.433 98.7667 182.612 98.7173 182.772 98.668L183.031 99.815C182.871 99.9013 182.636 99.9815 182.328 100.056C182.02 100.13 181.724 100.167 181.44 100.167ZM184.115 88.7705V87.087H185.965V88.7705H184.115ZM184.3 100V91.009H185.799V100H184.3ZM189.081 100V92.1745H187.305V91.009H189.081V90.6945C189.081 89.4982 189.377 88.5917 189.969 87.975C190.573 87.3583 191.498 87.013 192.744 86.939L193.466 86.902L193.595 88.049L192.744 88.1045C191.979 88.1662 191.424 88.3943 191.079 88.789C190.746 89.1837 190.58 89.7572 190.58 90.5095V91.009H193.17V92.1745H190.58V100H189.081ZM197.943 100.167C195.784 100.167 194.705 98.9763 194.705 96.596V91.009H196.204V96.5775C196.204 97.3792 196.364 97.9712 196.685 98.3535C197.018 98.7358 197.536 98.927 198.239 98.927C199.003 98.927 199.626 98.6742 200.107 98.1685C200.588 97.6505 200.829 96.966 200.829 96.115V91.009H202.327V100H200.866V98.483C200.582 99.0257 200.181 99.445 199.663 99.741C199.158 100.025 198.584 100.167 197.943 100.167ZM207.887 100.167C206.975 100.167 206.284 99.9013 205.815 99.371C205.359 98.8283 205.131 98.0452 205.131 97.0215V86.9575H206.629V96.9105C206.629 98.2302 207.154 98.89 208.202 98.89C208.51 98.89 208.788 98.853 209.034 98.779L208.997 100.037C208.615 100.123 208.245 100.167 207.887 100.167Z" fill="white"/>
</svg>
