<svg width="1679" height="548" viewBox="0 0 1679 548" fill="none" xmlns="http://www.w3.org/2000/svg">
<path d="M437.61 336.04H590.82C591.69 336.04 592.39 335.34 592.39 334.48V321.07C592.39 320.21 591.69 319.51 590.82 319.51H475.19V218.31H545.92C546.79 218.31 547.49 217.61 547.49 216.75V203.32C547.49 202.46 546.79 201.76 545.92 201.76H475.19V104.06H590.82C591.69 104.06 592.39 103.36 592.39 102.5V89.0899C592.39 88.2299 591.69 87.5299 590.82 87.5299H437.61C436.74 87.5299 436.04 88.2299 436.04 89.0899V334.46C436.04 335.34 436.74 336.04 437.61 336.04Z" fill="#2B5597"/>
<path d="M700.79 223.12C697 222.12 693.18 221.2 689.38 220.24C680.65 218.1 671.61 215.88 662.97 213.07C650.38 208.94 644.04 201.48 643.61 190.3C643.17 178.88 650.39 168.46 662.01 163.71C683.29 155.12 703.47 158.38 722.08 173.53C723.92 175.02 725.73 176.54 727.54 178.04L730.43 180.44C731.09 180.99 732.07 180.99 732.74 180.45L738.49 175.69C738.88 175.36 739.13 174.9 739.14 174.4C739.17 173.88 738.95 173.38 738.58 173.03C729.87 164.77 722.17 159.84 717.19 157.13C717.17 157.13 716.99 157.04 716.99 157.02C713.46 155.13 711.3 154.34 711.19 154.31C711.17 154.3 711.16 154.28 711.13 154.28C702.83 150.89 693.44 149.09 683.95 149.09C664.96 149.09 647.83 155.98 636.98 167.98C624.4 181.89 619.59 199.25 623.76 215.59C627.85 231.66 640.11 244.39 657.38 250.57C664.69 253.19 672.28 255.42 679.59 257.56C689.99 260.63 700.72 263.8 710.75 268.07C719.29 271.71 725.26 278.1 727.57 286.14C729.87 294.11 728.23 302.6 722.98 310.05C717.3 318.13 707.99 325.06 699.29 327.71C683.35 332.59 668.22 332.07 654.47 326.02C654.44 325.99 654.37 325.98 654.31 325.96L653.16 325.39C646.23 322.02 640.13 317.47 636.23 314.29C634.37 312.76 632.6 311.17 630.95 309.63C629.6 308.37 628.3 307.14 627.21 306.04C626.85 305.68 626.36 305.47 625.84 305.5C625.32 305.53 624.85 305.78 624.52 306.17L624.1 306.7C623.93 306.8 623.76 306.94 623.66 307.08C622.89 308.06 622.11 309.04 621.33 310C621.25 310.1 621.18 310.19 621.14 310.28L619.96 311.71C619.37 312.43 619.44 313.49 620.12 314.13C624.56 318.28 629.13 322.05 634.08 325.57C637.23 328.04 640.66 330.27 644.86 332.54C646.11 333.25 647.25 333.86 648.19 334.33C649.6 335.06 650.48 335.49 650.91 335.67C650.92 335.68 651.12 335.76 651.15 335.77C651.18 335.77 651.18 335.77 651.18 335.77C651.2 335.79 651.24 335.82 651.28 335.84C651.34 335.86 651.38 335.88 651.45 335.89C660.45 339.64 670.24 341.53 680.57 341.53C683.69 341.53 686.94 341.35 690.19 341C722.92 337.51 746.55 313.28 748.98 280.72C751.22 250.99 735.46 232.13 700.79 223.12Z" fill="#2B5597"/>
<path d="M1275.19 98.2399H1274.81C1268.63 98.3299 1262.54 101 1258.08 105.57C1253.62 110.14 1251.2 116.01 1251.33 122.12C1251.54 134.79 1262.26 145.09 1275.2 145.09H1275.62C1289.08 144.85 1299.07 134.65 1298.86 121.33C1298.61 108.38 1288.23 98.2399 1275.19 98.2399Z" fill="#2B5597"/>
<path d="M1293.17 163.37H1257.75C1256.76 163.37 1255.95 164.15 1255.95 165.1V334.32C1255.95 335.27 1256.75 336.04 1257.74 336.04H1293.2C1294.18 336.04 1294.99 335.27 1294.99 334.32V165.12C1294.99 164.16 1294.17 163.37 1293.17 163.37Z" fill="#2B5597"/>
<path d="M1222.37 163.41H1168.72V101.56C1168.72 100.58 1167.89 99.7799 1166.89 99.7799C1166.45 99.7799 1166 99.9599 1165.66 100.26L1128.96 134.03C1128.76 134.49 1128.58 134.9 1128.37 135.36V163.41H1101.08C1100.1 163.41 1099.27 164.2 1099.27 165.2V171C1099.27 171.99 1100.1 172.79 1101.08 172.79H1128.96V181.84C1128.96 196.28 1128.97 210.71 1128.97 225.14C1128.99 250.91 1129 276.67 1128.97 302.43C1128.96 317.24 1133.78 327.39 1143.77 333.42C1153.46 339.25 1163.66 342.23 1174.13 342.23C1180.8 342.23 1187.68 341.01 1194.57 338.6C1194.62 338.6 1194.66 338.58 1194.72 338.56C1198.7 337.29 1211.55 332.06 1212.11 331.86C1212.56 331.67 1212.91 331.32 1213.1 330.9C1213.28 330.45 1213.28 329.95 1213.1 329.52L1210.65 323.76C1210.46 323.3 1210.09 322.96 1209.65 322.78C1209.19 322.62 1208.7 322.62 1208.24 322.81C1204.83 324.3 1200.96 325.71 1196.74 326.99C1196.66 327.01 1196.58 327.03 1196.5 327.03C1196.33 327.1 1196.18 327.16 1196.01 327.22C1195.83 327.26 1195.64 327.33 1195.53 327.36C1189.59 329.1 1185.16 330.05 1184.75 330.13C1183.05 330.41 1181.52 330.55 1180.17 330.55C1172.87 330.55 1169.16 327.02 1169.11 307.73C1169.06 266.19 1169.08 214.29 1169.11 172.8H1222.36C1223.35 172.8 1224.14 172 1224.14 171.01V165.21C1224.15 164.21 1223.36 163.41 1222.37 163.41Z" fill="#2B5597"/>
<path d="M895.19 163.41H841.54V101.56C841.54 100.58 840.71 99.7799 839.71 99.7799C839.27 99.7799 838.82 99.9599 838.48 100.26L801.78 134.03C801.58 134.49 801.4 134.9 801.19 135.36V163.41H773.9C772.92 163.41 772.09 164.2 772.09 165.2V171C772.09 171.99 772.92 172.79 773.9 172.79H801.78V181.84C801.78 196.28 801.79 210.71 801.79 225.14C801.81 250.91 801.82 276.67 801.79 302.43C801.78 317.24 806.6 327.39 816.59 333.42C826.28 339.25 836.48 342.23 846.95 342.23C853.62 342.23 860.5 341.01 867.39 338.6C867.44 338.6 867.48 338.58 867.54 338.56C871.52 337.29 884.38 332.06 884.93 331.86C885.38 331.67 885.73 331.32 885.92 330.9C886.1 330.45 886.1 329.95 885.92 329.52L883.47 323.76C883.28 323.3 882.91 322.96 882.47 322.78C882.01 322.62 881.52 322.62 881.06 322.81C877.65 324.3 873.78 325.71 869.56 326.99C869.48 327.01 869.4 327.03 869.32 327.03C869.15 327.1 869 327.16 868.83 327.22C868.65 327.26 868.46 327.33 868.35 327.36C862.41 329.1 857.98 330.05 857.57 330.13C855.87 330.41 854.34 330.55 852.99 330.55C845.69 330.55 841.98 327.02 841.93 307.73C841.88 266.19 841.9 214.29 841.93 172.8H895.18C896.17 172.8 896.96 172 896.96 171.01V165.21C896.98 164.21 896.19 163.41 895.19 163.41Z" fill="#2B5597"/>
<path d="M1041.67 161.29C1017.54 145.84 991.34 144.42 966.18 157.17C937.59 171.68 918.59 201.04 915.35 235.65C912.01 271.42 925.86 304.9 952.4 325.23C966.42 335.96 983.14 341.62 1000.76 341.62C1023.71 341.62 1045.48 331.94 1060.56 315.02C1060.67 314.97 1060.77 314.88 1060.86 314.78C1061.14 314.49 1067.77 307.35 1075.55 293.33C1076.02 292.5 1075.76 291.46 1074.94 290.94L1070.11 287.9C1069.31 287.41 1068.22 287.61 1067.68 288.37L1061.35 297.16C1059.91 299.04 1058.48 300.9 1057.01 302.73C1040.59 322.89 1020.92 332.17 996.65 331.02C981.92 330.32 971.83 323.51 966.63 310.76C957.35 287.95 957.78 264.18 958.27 239.02C958.33 235.87 958.4 232.72 958.43 229.52H1075.25C1075.76 229.52 1076.22 229.34 1076.56 228.97C1076.9 228.62 1077.1 228.13 1077.07 227.66C1075.53 197.26 1063.93 175.55 1041.67 161.29ZM958.9 219.17C959.29 204.31 961 188.81 969.22 175.07C975.55 164.45 985.73 159.07 999.45 159.07C1000.67 159.07 1001.94 159.11 1003.2 159.19C1016.83 160.13 1026.34 167.88 1029.94 180.93C1032.34 189.52 1033.95 198.43 1035.66 207.83C1036.31 211.52 1037 215.29 1037.74 219.17H958.9Z" fill="#2B5597"/>
<path d="M1502.97 332.61L1422.2 229.78L1423.92 227.95L1487.78 166.44C1488.29 165.93 1488.47 165.17 1488.2 164.49C1487.94 163.81 1487.29 163.36 1486.58 163.36H1474.85C1474.41 163.36 1473.98 163.52 1473.65 163.83L1471.81 165.58C1471.75 165.64 1471.69 165.68 1471.62 165.74C1462.96 173.95 1454.27 182.19 1445.57 190.46L1381.27 251.5V101.57C1381.27 100.59 1380.49 99.7899 1379.53 99.7899H1379.12C1378.7 99.7899 1378.27 99.9699 1377.95 100.27L1343.93 132.51C1343.74 132.95 1343.58 133.33 1343.4 133.76V334.26C1343.4 335.24 1344.18 336.03 1345.13 336.03H1379.54C1380.49 336.03 1381.27 335.23 1381.27 334.26V268.89L1393.81 256.87L1449.47 328.25C1449.89 328.72 1450.3 329.24 1450.72 329.81C1451.71 331.08 1452.76 332.4 1453.74 333.36L1455.46 335.4C1455.78 335.79 1456.27 336.03 1456.78 336.03H1502.21C1502.98 336.03 1503.69 335.54 1503.89 334.78C1504.12 333.93 1502.97 332.61 1502.97 332.61Z" fill="#2B5597"/>
<path d="M1677.78 191.47C1677.78 191.32 1677.75 191.17 1677.7 190.9L1677.69 190.62C1677.69 190.42 1677.63 190.23 1677.58 190.06C1676.27 180.13 1666.33 168.91 1657.51 162.57C1645.51 153.92 1628.35 149.18 1609.15 149.18C1595.32 149.18 1581.36 151.76 1569.73 156.48C1569.55 156.52 1569.39 156.56 1569.22 156.63C1568.98 156.74 1568.76 156.85 1568.54 156.94L1568.14 157.14C1564.64 158.63 1561.31 160.38 1558.22 162.3C1558.04 162.37 1557.85 162.47 1557.68 162.6L1556.85 163.22C1556.68 163.32 1556.55 163.4 1556.45 163.47L1556.04 163.73C1555.77 163.91 1555.5 164.07 1555.26 164.24C1555.23 164.27 1555.19 164.29 1555.13 164.34C1548.82 168.48 1544.78 171.99 1544.62 172.12C1543.89 172.76 1543.8 173.88 1544.46 174.62L1549 179.82C1549.32 180.18 1549.76 180.43 1550.27 180.44C1550.74 180.47 1551.22 180.31 1551.58 179.97C1565.28 167.51 1582.06 160.87 1602.88 159.72C1603.91 159.67 1604.95 159.64 1605.97 159.64C1624.78 159.64 1637.65 169.64 1639.56 185.78C1639.73 187.38 1639.84 189.06 1639.93 190.67L1640.03 192.45V228.01L1639.99 229.74C1639.99 230.68 1639.94 231.63 1639.94 232.57C1639.11 232.63 1638.31 232.68 1637.53 232.73C1635.24 232.89 1633.17 233.05 1631.11 233.13C1605.21 234.09 1580.02 235.85 1555.94 246.63C1531.02 257.78 1520.58 277.38 1524.89 304.87C1528.18 325.93 1543.5 338.26 1570.45 341.47C1575.48 342.07 1580.34 342.39 1584.9 342.39C1607.21 342.39 1625.29 335.11 1640.03 320.14V334.21C1640.03 335.2 1640.85 336.01 1641.85 336.01H1676.9C1677.89 336.01 1678.69 335.21 1678.69 334.23C1678.69 321.72 1678.77 309.23 1678.85 296.76C1679.06 262.23 1679.27 226.51 1677.78 191.47ZM1640.05 297.05C1640.02 297.42 1639.99 297.77 1639.97 298.16C1639.94 298.47 1639.94 298.82 1639.9 299.17C1638.35 313.55 1618.16 330.29 1594.44 330.29C1588.21 330.29 1582.67 328.85 1578.45 326.18C1577.26 325.45 1576.08 324.48 1574.94 323.37C1565.94 314.48 1562.42 298.13 1566 281.66C1569.22 266.9 1577.37 255.77 1587.79 251.9C1599.12 247.72 1611.3 245.73 1624.21 243.67C1629.37 242.82 1634.66 241.97 1640.03 240.96L1640.05 297.05Z" fill="#2B5597"/>
<path d="M967.57 425.14H952.6C952.01 425.14 951.54 425.58 951.54 426.13V457.27L952.15 468.88C945.04 463.81 938.39 460.72 928.83 460.72C903.44 460.72 889.73 483.15 889.73 504.26C889.73 530.92 904.03 547.46 927.03 547.46C938.51 547.46 947.99 541.08 953.19 536.65L954.25 544.6C954.31 545.1 954.77 545.47 955.32 545.47H967.57C968.16 545.47 968.64 545.03 968.64 544.48V426.12C968.63 425.57 968.15 425.14 967.57 425.14ZM951.53 523.48C944.52 530.66 937.76 534.01 930.25 534.01C915.6 534.01 907.18 523.11 907.18 504.09C907.18 486.73 917.34 474.16 931.33 474.16C938.58 474.16 944.82 476.61 951.52 482.07V523.48H951.53Z" fill="#4A4F54"/>
<path d="M1040.81 462.44C1037.73 461.21 1034.91 460.71 1031.02 460.71C1021.63 460.71 1012.8 466.18 1006.47 475.81L1005.41 463.61C1005.38 463.1 1004.91 462.7 1004.36 462.7H992.09C991.5 462.7 991.03 463.14 991.03 463.69V544.47C991.03 545.02 991.5 545.46 992.09 545.46H1006.87C1007.46 545.46 1007.94 545.02 1007.94 544.47V492.8C1015.03 476.73 1025.03 474.98 1029.01 474.98C1032.54 474.98 1034.43 475.46 1037.18 476.26C1037.46 476.34 1037.76 476.3 1038.04 476.17C1038.28 476.02 1038.47 475.8 1038.53 475.52L1041.43 463.56C1041.54 463.11 1041.27 462.64 1040.81 462.44Z" fill="#4A4F54"/>
<path d="M1061.1 524.54C1054.34 524.54 1049.22 529.54 1049.22 536.16C1049.22 542.5 1054.45 547.45 1061.1 547.45C1067.67 547.45 1072.83 542.5 1072.83 536.16C1072.83 529.53 1067.77 524.54 1061.1 524.54Z" fill="#4A4F54"/>
<path d="M1197.3 434.45H1180.35C1179.87 434.45 1179.48 434.72 1179.32 435.12L1139.35 544.17C1139.23 544.47 1139.28 544.81 1139.49 545.06C1139.69 545.32 1140.01 545.47 1140.37 545.47H1155.67C1156.14 545.47 1156.55 545.2 1156.69 544.78L1167.82 512.21H1209.3L1220.23 544.76C1220.37 545.18 1220.78 545.46 1221.26 545.46H1237.29C1237.63 545.46 1237.96 545.31 1238.17 545.05C1238.37 544.8 1238.42 544.46 1238.31 544.16L1198.32 435.11C1198.18 434.72 1197.76 434.45 1197.3 434.45ZM1204.84 499.1H1172.25L1177.42 483.79C1181.33 472.82 1184.94 461.52 1188.48 449.3C1192.52 462.73 1196 473.45 1199.69 483.77L1204.84 499.1Z" fill="#4A4F54"/>
<path d="M1367.51 425.89C1364.8 424.86 1359.25 423.16 1352.51 423.16C1335.32 423.16 1325.86 433 1325.86 450.9V462.78L1314.95 463.54C1314.4 463.57 1313.97 464 1313.97 464.52V474.83C1313.97 475.38 1314.44 475.82 1315.05 475.82H1325.87V544.48C1325.87 545.03 1326.35 545.47 1326.94 545.47H1341.71C1342.31 545.47 1342.79 545.03 1342.79 544.48V475.82H1360.27C1360.87 475.82 1361.34 475.38 1361.34 474.83V463.7C1361.34 463.15 1360.86 462.71 1360.27 462.71H1342.79V450.89C1342.79 441.04 1346.45 436.25 1353.98 436.25C1357.12 436.25 1360.39 436.92 1363.44 438.17C1363.7 438.28 1364.04 438.28 1364.32 438.15C1364.62 438.03 1364.82 437.82 1364.91 437.53L1368.16 427.06C1368.29 426.58 1368.02 426.07 1367.51 425.89Z" fill="#4A4F54"/>
<path d="M1302.92 425.89C1300.2 424.86 1294.66 423.16 1287.92 423.16C1270.72 423.16 1261.26 433 1261.26 450.9V462.78L1250.35 463.54C1249.8 463.57 1249.36 464 1249.36 464.52V474.83C1249.36 475.38 1249.83 475.82 1250.44 475.82H1261.26V544.48C1261.26 545.03 1261.74 545.47 1262.33 545.47H1277.11C1277.7 545.47 1278.18 545.03 1278.18 544.48V475.82H1295.67C1296.26 475.82 1296.74 475.38 1296.74 474.83V463.7C1296.74 463.15 1296.26 462.71 1295.67 462.71H1278.18V450.89C1278.18 441.04 1281.84 436.25 1289.37 436.25C1292.53 436.25 1295.79 436.92 1298.84 438.17C1299.11 438.28 1299.44 438.28 1299.74 438.15C1300.03 438.03 1300.22 437.82 1300.32 437.53L1303.56 427.06C1303.69 426.58 1303.42 426.07 1302.92 425.89Z" fill="#4A4F54"/>
<path d="M1414.49 460.71C1403.13 460.71 1391.35 464.28 1379.48 471.33C1379.02 471.62 1378.85 472.19 1379.13 472.66L1384.9 482.12C1385.05 482.37 1385.31 482.54 1385.58 482.6C1385.87 482.68 1386.2 482.62 1386.44 482.45C1395.36 476.83 1403.94 473.99 1411.97 473.99C1422.95 473.99 1428.65 480.18 1428.9 492.42C1391.28 496.39 1375.21 505.72 1375.21 523.54C1375.21 537.85 1385.92 547.46 1401.89 547.46C1411.21 547.46 1420.34 543.93 1430.55 536.38L1431.63 544.6C1431.68 545.1 1432.13 545.47 1432.69 545.47H1444.95C1445.53 545.47 1446.02 545.03 1446.02 544.48V494.93C1446.01 472.55 1435.11 460.71 1414.49 460.71ZM1428.92 524.25C1421.37 530.41 1414.6 534.51 1406.2 534.51C1401.87 534.51 1391.77 533.33 1391.77 522.52C1391.77 512.23 1402.89 506.46 1428.92 503.37V524.25Z" fill="#4A4F54"/>
<path d="M1512.9 460.71C1500.32 460.71 1491.17 467.06 1483.88 473.63L1482.8 463.59C1482.73 463.1 1482.29 462.71 1481.73 462.71H1469.49C1468.89 462.71 1468.41 463.15 1468.41 463.7V544.48C1468.41 545.03 1468.9 545.47 1469.49 545.47H1484.26C1484.85 545.47 1485.34 545.03 1485.34 544.48V486.39C1494.1 478.33 1499.82 474.5 1508.22 474.5C1519.1 474.5 1523.73 480.66 1523.73 495.13V544.49C1523.73 545.04 1524.2 545.48 1524.8 545.48H1539.57C1540.18 545.48 1540.64 545.04 1540.64 544.49V493.3C1540.63 471.67 1531.3 460.71 1512.9 460.71Z" fill="#4A4F54"/>
<path d="M1635.72 425.14H1620.76C1620.16 425.14 1619.69 425.58 1619.69 426.13V457.27L1620.3 468.88C1613.21 463.81 1606.55 460.72 1597 460.72C1571.59 460.72 1557.89 483.15 1557.89 504.26C1557.89 530.92 1572.19 547.46 1595.18 547.46C1606.68 547.46 1616.16 541.08 1621.35 536.65L1622.42 544.6C1622.49 545.1 1622.95 545.47 1623.47 545.47H1635.73C1636.34 545.47 1636.81 545.03 1636.81 544.48V426.12C1636.8 425.57 1636.33 425.14 1635.72 425.14ZM1619.69 523.48C1612.69 530.66 1605.92 534.01 1598.43 534.01C1583.75 534.01 1575.35 523.11 1575.35 504.09C1575.35 486.73 1585.52 474.16 1599.51 474.16C1606.76 474.16 1613 476.61 1619.7 482.07V523.48H1619.69Z" fill="#4A4F54"/>
<path d="M1675.03 462.71H1660.26C1659.66 462.71 1659.18 463.15 1659.18 463.7V544.48C1659.18 545.03 1659.67 545.47 1660.26 545.47H1675.03C1675.64 545.47 1676.11 545.03 1676.11 544.48V463.7C1676.11 463.15 1675.64 462.71 1675.03 462.71Z" fill="#4A4F54"/>
<path d="M1667.65 448.06C1674.11 448.06 1679 443.84 1679 438.25C1679 432.58 1674.22 428.44 1667.65 428.44C1661.07 428.44 1656.3 432.57 1656.3 438.25C1656.3 443.84 1661.19 448.06 1667.65 448.06Z" fill="#4A4F54"/>
<path d="M335.55 188.91C335.32 188.05 335.11 187.21 334.87 186.35C333.9 183.17 332.93 180 331.79 176.91H331.81C331.81 176.91 331.77 176.83 331.7 176.7C326.09 161.47 318.52 147.27 309.37 134.38C308.52 133.15 307.67 131.97 306.84 130.86C306.84 130.86 304.74 127.66 302.68 125.31C302.25 124.82 301.82 124.35 301.41 123.97C301.4 123.94 301.36 123.9 301.33 123.87V123.9C301.11 123.69 300.89 123.52 300.69 123.37C300.49 123.16 300.24 123.03 299.94 122.97C299.85 122.94 299.78 122.92 299.69 122.91C299.64 122.91 299.61 122.88 299.55 122.88C298.67 122.88 297.96 123.59 297.96 124.45C297.96 124.73 298.04 124.98 298.18 125.19C298.28 125.53 298.41 126.01 298.56 126.54C299.76 130.8 356.26 349.11 186.56 375.53C186.55 375.53 186.51 375.53 186.52 375.53C188.14 374.58 290.69 313.99 262.2 156.15C261.78 153.81 261.26 151.47 260.69 149.16C257.78 137.35 247.9 96.75 240.29 60.51C238.52 50.05 237.2 40.8299 236.22 33.1899C235.57 28.1299 235.19 23.05 235.04 17.95C234.92 14.27 234.42 11.33 233.7 8.97996V8.94996L233.69 8.95994C228.69 -6.86006 211.88 4.50995 211.88 4.50995L196.17 15.26C181.79 24.1 166.03 32.83 149.96 41.92C123.61 55.87 51.92 95.9199 23.7 150.72C8.59996 180.04 -11.54 233.57 11.27 306.07C11.27 306.07 50.28 423.16 159.7 423.16C183.49 423.16 278.49 426.49 327.18 322.23C327.18 322.22 355.84 263.13 335.55 188.91ZM165.61 359.34C157.21 369.07 135.68 391.22 110.05 396.26C110.03 396.26 110.02 396.25 110.03 396.23C113.54 392.18 118.06 386.3 123.32 378.02C123.7 377.42 124.09 376.82 124.44 376.23C124.55 376.05 124.66 375.86 124.78 375.68C135.75 357.17 133.37 343.16 129.37 334.61C125.43 327.39 119.81 321.63 115.76 318.04C115.74 318.02 115.72 317.99 115.69 317.96C114.88 317.22 113.97 316.48 113.03 315.74C111.58 314.58 110.67 313.96 110.67 313.96V313.98C109.45 313.11 108.18 312.25 106.89 311.42C96.39 304.05 86.45 300.27 86.38 300.25C79.87 296.86 73.32 293.52 66.94 289.89C59.12 285.43 51.93 280.15 48.06 271.55C42.63 259.48 45.75 249.78 57.23 242.86C59.19 241.67 61.21 240.34 62.59 238.6C63.65 237.29 64.67 234.82 64.12 233.53C59.07 221.79 62.45 216.25 75.16 216.38C74.31 214.25 73.3 212.27 72.72 210.19C71.26 205.05 74.14 201.18 79.45 200.87C90.42 200.26 94.5 194.78 91.76 184.15C90.71 180.06 89.16 176.11 88.12 172.04C86.5 165.48 89.49 161.6 96.24 161.24C102.9 160.88 109.59 160.84 116.23 160.4C116.26 160.4 116.29 160.4 116.33 160.4C149.35 159.56 151.58 149.79 162.36 131.48C170.04 118.43 181.15 108.56 186.89 103.98C188.67 102.56 191.33 103.35 192 105.51C192.48 107.05 192.96 108.65 193.46 110.31C196.56 120.78 199.87 133.31 202.74 147.28C209.92 182.02 214.46 225.57 207 268.29C205.69 275.79 203.98 283.27 201.89 290.66C200.69 294.82 199.39 298.97 197.91 303.06C197.58 304 197.25 304.95 196.89 305.91C196.35 307.38 195.77 308.84 195.17 310.31C191.83 318.63 187.83 326.74 183.16 334.64L183.21 334.62C183.2 334.62 177.4 345.38 165.61 359.34Z" fill="url(#paint0_linear)"/>
<defs>
<linearGradient id="paint0_linear" x1="207.698" y1="110.234" x2="126.728" y2="412.418" gradientUnits="userSpaceOnUse">
<stop stop-color="#4B78B3"/>
<stop offset="0.2048" stop-color="#4F81BA"/>
<stop offset="0.5387" stop-color="#5B99CC"/>
<stop offset="0.9581" stop-color="#6FC1EB"/>
<stop offset="1" stop-color="#71C5EE"/>
</linearGradient>
</defs>
</svg>
