<svg width="20" height="21" viewBox="0 0 20 21" fill="none" xmlns="http://www.w3.org/2000/svg">
<path d="M18.125 1.75C18.6328 1.75 19.0625 1.94531 19.4531 2.29688C19.8047 2.6875 20 3.11719 20 3.625V13C20 14.1328 19.6875 15.1875 19.1406 16.125C18.5938 17.1016 17.8125 17.8828 16.875 18.4297C15.8984 18.9766 14.8438 19.25 13.75 19.25H13.4375C13.1641 19.25 12.9297 19.1719 12.7734 18.9766C12.5781 18.8203 12.5 18.5859 12.5 18.3125V16.4375C12.5 16.2031 12.5781 15.9688 12.7734 15.7734C12.9297 15.6172 13.1641 15.5 13.4375 15.5H13.75C14.4141 15.5 15 15.2656 15.5078 14.7578C15.9766 14.2891 16.25 13.7031 16.25 13V10.5H13.125C12.5781 10.5 12.1484 10.3438 11.7969 9.95312C11.4062 9.60156 11.25 9.17188 11.25 8.625V3.625C11.25 3.11719 11.4062 2.6875 11.7969 2.29688C12.1484 1.94531 12.5781 1.75 13.125 1.75H18.125ZM6.875 1.75C7.38281 1.75 7.8125 1.94531 8.20312 2.29688C8.55469 2.6875 8.75 3.11719 8.75 3.625V13C8.75 14.1328 8.4375 15.1875 7.89062 16.125C7.34375 17.1016 6.5625 17.8828 5.625 18.4297C4.64844 18.9766 3.59375 19.25 2.5 19.25H2.1875C1.91406 19.25 1.67969 19.1719 1.52344 18.9766C1.32812 18.8203 1.25 18.5859 1.25 18.3125V16.4375C1.25 16.2031 1.32812 15.9688 1.52344 15.7734C1.67969 15.6172 1.91406 15.5 2.1875 15.5H2.5C3.16406 15.5 3.75 15.2656 4.25781 14.7578C4.72656 14.2891 5 13.7031 5 13V10.5H1.875C1.32812 10.5 0.898438 10.3438 0.546875 9.95312C0.15625 9.60156 0 9.17188 0 8.625V3.625C0 3.11719 0.15625 2.6875 0.546875 2.29688C0.898438 1.94531 1.32812 1.75 1.875 1.75H6.875Z" fill="#464655"/>
</svg>
