<svg width="32" height="32" viewBox="0 0 32 32" fill="none" xmlns="http://www.w3.org/2000/svg">
<rect x="1" y="1" width="30" height="30" rx="7" stroke="#527BA9" stroke-width="2"/>
<path d="M13.75 22H11.5C10.7044 22 9.94129 21.6839 9.37868 21.1213C8.81607 20.5587 8.5 19.7956 8.5 19V12.25C8.5 11.4544 8.81607 10.6913 9.37868 10.1287C9.94129 9.56607 10.7044 9.25 11.5 9.25H19.75C20.5456 9.25 21.3087 9.56607 21.8713 10.1287C22.4339 10.6913 22.75 11.4544 22.75 12.25V14.5" stroke="#527BA9" stroke-width="2" stroke-linecap="round" stroke-linejoin="round"/>
<path d="M13 8.5V10" stroke="#527BA9" stroke-width="2" stroke-linecap="round" stroke-linejoin="round"/>
<path d="M18.25 8.5V10" stroke="#527BA9" stroke-width="2" stroke-linecap="round" stroke-linejoin="round"/>
<path d="M8.5 13H22.75" stroke="#527BA9" stroke-width="2" stroke-linecap="round" stroke-linejoin="round"/>
<path d="M20.875 18.7322L19.75 19.8572" stroke="#527BA9" stroke-width="2" stroke-linecap="round" stroke-linejoin="round"/>
<path d="M19.75 23.5C21.8211 23.5 23.5 21.8211 23.5 19.75C23.5 17.6789 21.8211 16 19.75 16C17.6789 16 16 17.6789 16 19.75C16 21.8211 17.6789 23.5 19.75 23.5Z" stroke="#527BA9" stroke-width="2" stroke-linecap="round" stroke-linejoin="round"/>
</svg>
