<?xml version="1.0" encoding="utf-8"?>
<!-- Generator: Adobe Illustrator 24.2.0, SVG Export Plug-In . SVG Version: 6.00 Build 0)  -->
<svg version="1.1" id="Layer_1" xmlns="http://www.w3.org/2000/svg" xmlns:xlink="http://www.w3.org/1999/xlink" x="0px" y="0px"
	 viewBox="0 0 32 32" style="enable-background:new 0 0 32 32;" xml:space="preserve">
<style type="text/css">
	.st0{clip-path:url(#SVGID_2_);}
	.st1{clip-path:url(#SVGID_4_);fill:#8E8E8E;}
	.st2{clip-path:url(#SVGID_4_);fill:none;stroke:#8E8E8E;stroke-width:0.3;}
	.st3{clip-path:url(#SVGID_4_);fill:none;stroke:#8E8E8E;}
	.st4{clip-path:url(#SVGID_4_);fill:#8F908F;}
	.st5{clip-path:url(#SVGID_4_);fill:none;stroke:#8F908F;stroke-miterlimit:10;}
	.st6{fill:none;stroke:#527CAA;stroke-width:2;}
	.st7{clip-path:url(#SVGID_6_);fill:none;stroke:#527CAA;stroke-width:1.036;stroke-miterlimit:10;}
	.st8{clip-path:url(#SVGID_6_);fill:none;stroke:#527CAA;stroke-width:1.3814;stroke-miterlimit:10;}
	.st9{fill:none;}
	.st10{clip-path:url(#SVGID_8_);fill:#8E8E8E;}
	.st11{fill:none;stroke:#8E8E8E;stroke-miterlimit:10;}
	.st12{fill:none;stroke:#8E8E8E;stroke-width:0.7856;stroke-miterlimit:10;}
	.st13{fill:none;stroke:#8E8E8E;stroke-width:0.8594;stroke-miterlimit:10;}
	.st14{fill:#222222;}
	.st15{fill:none;stroke:#527CAA;}
	.st16{fill:#527CAA;}
	.st17{fill:none;stroke:#222222;stroke-width:1.1142;stroke-miterlimit:10;}
	.st18{clip-path:url(#SVGID_10_);fill:#527CAA;}
	.st19{fill:none;stroke:#527CAA;stroke-width:0.9215;stroke-miterlimit:10;}
	.st20{fill:none;stroke:#527CAA;stroke-width:0.724;stroke-miterlimit:10;}
	.st21{fill:none;stroke:#527CAA;stroke-width:0.7919;stroke-miterlimit:10;}
</style>
<path class="st6" d="M8,1h16c3.9,0,7,3.1,7,7v16c0,3.9-3.1,7-7,7H8c-3.9,0-7-3.1-7-7V8C1,4.1,4.1,1,8,1z"/>
<g>
	<defs>
		<rect id="SVGID_5_" x="0.8" y="0.8" width="30.4" height="30.4"/>
	</defs>
	<clipPath id="SVGID_2_">
		<use xlink:href="#SVGID_5_"  style="overflow:visible;"/>
	</clipPath>
	<path style="clip-path:url(#SVGID_2_);fill:none;stroke:#527CAA;stroke-width:1.036;stroke-miterlimit:10;" d="M20.6,7l0.9,1.9
		C21.6,9,21.8,9.2,22,9.2l2,0.3c0.5,0.1,0.7,0.7,0.3,1l-1.5,1.4c-0.1,0.1-0.2,0.3-0.2,0.5l0.4,2c0.1,0.5-0.4,0.8-0.8,0.6l-1.8-1
		c-0.2-0.1-0.4-0.1-0.5,0l-1.8,1c-0.4,0.2-0.9-0.1-0.8-0.6l0.3-2c0-0.2,0-0.4-0.2-0.5l-1.5-1.4c-0.3-0.3-0.2-0.9,0.3-1l2-0.3
		c0.2,0,0.4-0.1,0.4-0.3L19.6,7C19.8,6.6,20.4,6.6,20.6,7z"/>
	<path style="clip-path:url(#SVGID_2_);fill:none;stroke:#527CAA;stroke-width:1.3814;stroke-miterlimit:10;" d="M24.3,10.9
		c0.3,0.3,0.6,0.7,0.6,1.2v9c0,0.9-0.7,1.6-1.6,1.6H8.8c-0.9,0-1.6-0.7-1.6-1.6v-9c0-0.9,0.7-1.6,1.6-1.6H16"/>
	
		<rect x="7.2" y="17.6" style="clip-path:url(#SVGID_2_);fill:none;stroke:#527CAA;stroke-width:1.3814;stroke-miterlimit:10;" width="17.7" height="3"/>
</g>
<rect x="0.8" y="0.8" class="st9" width="30.4" height="30.4"/>
</svg>
