<svg width="32" height="32" viewBox="0 0 32 32" fill="none" xmlns="http://www.w3.org/2000/svg">
<rect x="1" y="1" width="30" height="30" rx="7" stroke="#527BA9" stroke-width="2"/>
<g clip-path="url(#clip0)">
<path d="M9.94356 11.5381C8.81489 13.0163 8.20326 14.8244 8.20279 16.6842C8.20068 18.0883 8.54849 19.4705 9.21434 20.7059L8.24597 23.8907C8.24596 23.8908 8.24595 23.8908 8.24595 23.8908C8.19402 24.0613 8.18942 24.2427 8.23262 24.4157C8.27584 24.5886 8.36525 24.7466 8.49131 24.8726C8.61736 24.9987 8.7753 25.0881 8.94825 25.1313C9.1212 25.1745 9.30264 25.1699 9.47316 25.1179L12.6529 24.1496C14.2695 25.0233 16.1267 25.3486 17.9451 25.0758C19.7844 24.7998 21.482 23.9269 22.7766 22.5917C24.0713 21.2564 24.8913 19.5326 25.1104 17.6857C25.3295 15.8387 24.9355 13.971 23.9892 12.3699C23.0428 10.7687 21.5965 9.52298 19.8729 8.82432C18.1492 8.12566 16.2437 8.01282 14.4496 8.50316C12.6555 8.9935 11.0723 10.0598 9.94356 11.5381ZM11.1193 20.0732L11.1193 20.0731C10.5177 19.085 10.19 17.9546 10.1699 16.798C10.1497 15.6413 10.4378 14.5002 11.0046 13.4917C11.5714 12.4833 12.3964 11.6438 13.3948 11.0597C14.3933 10.4755 15.5293 10.1677 16.6861 10.1678C17.6924 10.1679 18.685 10.4011 19.586 10.8491C20.4871 11.2971 21.2722 11.9476 21.8798 12.7498C22.4874 13.5519 22.9009 14.4839 23.0881 15.4726C23.2752 16.4613 23.2308 17.48 22.9584 18.4487C22.686 19.4174 22.1929 20.3098 21.5179 21.0561C20.8428 21.8024 20.0041 22.3821 19.0675 22.75C18.1308 23.1179 17.1217 23.2639 16.1193 23.1765C15.1168 23.0891 14.1482 22.7708 13.2893 22.2464C13.1707 22.1738 13.0382 22.1272 12.9003 22.1095C12.7623 22.0919 12.6221 22.1038 12.4891 22.1443L12.5328 22.2878L12.4891 22.1443L10.6632 22.7006L11.2196 20.8716C11.2196 20.8716 11.2196 20.8715 11.2196 20.8715C11.2601 20.7389 11.2721 20.5992 11.2548 20.4617C11.2376 20.3241 11.1914 20.1917 11.1193 20.0732ZM13.4908 15.1558C13.3064 15.3402 13.2028 15.5903 13.2028 15.8511C13.2028 16.1119 13.3064 16.362 13.4908 16.5464C13.6752 16.7309 13.9253 16.8345 14.1861 16.8345H19.1861C19.4469 16.8345 19.697 16.7309 19.8814 16.5464C20.0659 16.362 20.1695 16.1119 20.1695 15.8511C20.1695 15.5903 20.0659 15.3402 19.8814 15.1558C19.697 14.9714 19.4469 14.8678 19.1861 14.8678H14.1861C13.9253 14.8678 13.6752 14.9714 13.4908 15.1558ZM14.1861 18.2011C13.9253 18.2011 13.6752 18.3047 13.4908 18.4891C13.3064 18.6735 13.2028 18.9237 13.2028 19.1845C13.2028 19.4453 13.3064 19.6954 13.4908 19.8798C13.6752 20.0642 13.9253 20.1678 14.1861 20.1678H17.5195C17.7803 20.1678 18.0304 20.0642 18.2148 19.8798C18.3992 19.6954 18.5028 19.4453 18.5028 19.1845C18.5028 18.9237 18.3992 18.6735 18.2148 18.4891C18.0304 18.3047 17.7803 18.2011 17.5195 18.2011H14.1861Z" fill="#527BA9" stroke="#527BA9" stroke-width="0.3"/>
</g>
<defs>
<clipPath id="clip0">
<rect width="20" height="20" fill="white" transform="translate(5.99976 6.00006)"/>
</clipPath>
</defs>
</svg>
