<?xml version="1.0" encoding="utf-8"?>
<!-- Generator: Adobe Illustrator 24.2.0, SVG Export Plug-In . SVG Version: 6.00 Build 0)  -->
<svg version="1.1" id="Layer_1" xmlns="http://www.w3.org/2000/svg" xmlns:xlink="http://www.w3.org/1999/xlink" x="0px" y="0px"
	 viewBox="0 0 32 32" style="enable-background:new 0 0 32 32;" xml:space="preserve">
<style type="text/css">
	.st0{clip-path:url(#SVGID_2_);}
	.st1{clip-path:url(#SVGID_4_);fill:#8E8E8E;}
	.st2{clip-path:url(#SVGID_4_);fill:none;stroke:#8E8E8E;stroke-width:0.3;}
	.st3{clip-path:url(#SVGID_4_);fill:none;stroke:#8E8E8E;}
	.st4{clip-path:url(#SVGID_4_);fill:#8F908F;}
	.st5{clip-path:url(#SVGID_4_);fill:none;stroke:#8F908F;stroke-miterlimit:10;}
	.st6{fill:none;stroke:#527CAA;stroke-width:2;}
	.st7{clip-path:url(#SVGID_6_);fill:none;stroke:#527CAA;stroke-width:1.036;stroke-miterlimit:10;}
	.st8{clip-path:url(#SVGID_6_);fill:none;stroke:#527CAA;stroke-width:1.3814;stroke-miterlimit:10;}
	.st9{fill:none;}
	.st10{clip-path:url(#SVGID_8_);fill:#8E8E8E;}
	.st11{fill:none;stroke:#8E8E8E;stroke-miterlimit:10;}
	.st12{fill:none;stroke:#8E8E8E;stroke-width:0.7856;stroke-miterlimit:10;}
	.st13{fill:none;stroke:#8E8E8E;stroke-width:0.8594;stroke-miterlimit:10;}
	.st14{fill:#222222;}
	.st15{fill:none;stroke:#527CAA;}
	.st16{fill:#527CAA;}
	.st17{fill:none;stroke:#222222;stroke-width:1.1142;stroke-miterlimit:10;}
	.st18{clip-path:url(#SVGID_10_);fill:#527CAA;}
	.st19{fill:none;stroke:#527CAA;stroke-width:0.9215;stroke-miterlimit:10;}
	.st20{fill:none;stroke:#527CAA;stroke-width:0.724;stroke-miterlimit:10;}
	.st21{fill:none;stroke:#527CAA;stroke-width:0.7919;stroke-miterlimit:10;}
</style>
<path class="st6" d="M8,1h16c3.9,0,7,3.1,7,7v16c0,3.9-3.1,7-7,7H8c-3.9,0-7-3.1-7-7V8C1,4.1,4.1,1,8,1z"/>
<g>
	<g>
		<defs>
			<rect id="SVGID_9_" x="6.1" y="5.6" width="19.7" height="20.8"/>
		</defs>
		<clipPath id="SVGID_2_">
			<use xlink:href="#SVGID_9_"  style="overflow:visible;"/>
		</clipPath>
		<path style="clip-path:url(#SVGID_2_);fill:#527CAA;" d="M24.9,12.3c0-0.1-0.1-0.3-0.2-0.4c-0.1-0.1-0.2-0.2-0.4-0.2h-6.2
			c-0.1,0-0.3,0.1-0.4,0.2c-0.1,0.1-0.2,0.2-0.2,0.4v1.3l0.5,4.3c-0.4-0.1-0.4-0.2-0.5-0.2c0-0.1,0.1-0.2,0-0.3c0-0.1,0-0.2-0.1-0.3
			c-0.1-0.1-0.1-0.1-0.2-0.2c-0.1,0-0.2-0.1-0.3-0.1c-0.4,0-0.9,0.1-1.2,0.2l0.2-1.5l0-0.1c0-0.8-0.2-1.6-0.6-2.4
			c-0.4-0.7-0.9-1.2-1.6-1.6c0,0,0-0.1,0-0.1l-0.3-2c0-0.1-0.1-0.2-0.2-0.3c-0.1-0.1-0.2-0.1-0.3-0.1h-0.1V8.3h2
			c0.1,0,0.3-0.1,0.4-0.2c0.1-0.1,0.2-0.2,0.2-0.4V6.4c0-0.1,0-0.2,0-0.2c0-0.1-0.1-0.1-0.1-0.2c-0.1-0.1-0.1-0.1-0.2-0.1
			c-0.1,0-0.1,0-0.2,0l-4.7,0.3c-0.1,0-0.2,0-0.3,0.1C10,6.4,9.9,6.5,9.9,6.6l-0.3,1c0,0.1,0,0.2,0,0.3c0,0.1,0,0.2,0.1,0.2
			c0,0.1,0.1,0.1,0.2,0.2c0.1,0,0.2,0.1,0.2,0.1h0.1v0.9h-0.1c-0.1,0-0.2,0-0.3,0.1C9.7,9.3,9.6,9.5,9.6,9.6l-0.3,2c0,0,0,0.1,0,0.1
			c-0.6,0.4-1.2,0.9-1.5,1.6c-0.4,0.7-0.6,1.5-0.6,2.4L8.3,25c0,0.3,0.2,0.6,0.4,0.8C8.8,25.9,9.1,26,9.4,26h13.1
			c0.3,0,0.6-0.1,0.8-0.4c0.2-0.2,0.3-0.5,0.3-0.9l0-1.3l1.2-9.8L24.9,12.3z M14.5,7v0.2h-2.3L14.5,7z M12.1,9.1h-0.8V8.3h0.8V9.1z
			 M22.6,24v0.8c0,0,0,0.1,0,0.1c0,0,0,0-0.1,0h-1.3c0,0,0,0,0-0.1V24H22.6z M20.9,20.6c-0.2-0.2-0.4-0.3-0.6-0.3v-0.8l0-0.1
			c0-0.2-0.1-0.5-0.2-0.7c-0.1-0.2-0.2-0.4-0.4-0.5c-0.1-0.1-0.3-0.2-0.4-0.2l-0.5-3.9h5l-1.1,8.7h-1.5v-1.5
			C21.2,21.2,21.1,20.9,20.9,20.6 M15.2,19c0.4-0.4,0.8-0.7,1.5-0.8c0,0.1,0.1,0.2,0.1,0.2c0.2,0.3,0.5,0.5,0.9,0.6H15.2z
			 M12.5,21.5L12.5,21.5l7.6-0.1l0.1,0.1v3.4l-0.1,0.1h-7.5l-0.1-0.1V21.5z M13.4,20.1h5.8v0.2h-5.8V20.1z M14.9,17.9
			c-0.1,0.1-0.3,0.2-0.4,0.3C14,18.6,13.6,19,12.9,19c-0.1,0-0.3,0.1-0.4,0.2c-0.1,0.1-0.2,0.2-0.2,0.4v0.8c-0.2,0-0.4,0.2-0.6,0.3
			c-0.2,0.2-0.3,0.5-0.3,0.8v3.4c0,0,0,0,0,0.1h-2c0,0,0,0-0.1,0c0,0,0,0,0-0.1l-1.2-9.2c0-0.9,0.3-1.7,0.9-2.4c0.6-0.6,1.4-1,2.3-1
			H12c0.9,0,1.7,0.4,2.3,1c0.6,0.6,0.9,1.5,0.9,2.3L14.9,17.9z M10.4,11.1l0.1-0.9h2.2l0.1,0.9H10.4z M23.9,13.1h-5.2v-0.2h5.2V13.1
			z M7.3,15.6L7.3,15.6L7.3,15.6L7.3,15.6z"/>
	</g>
	<rect x="6.1" y="5.6" class="st9" width="19.7" height="20.8"/>
	<path class="st19" d="M9.1,15.4h5.1H9.1z"/>
	<path class="st19" d="M13.6,23h5.1H13.6z"/>
	<path class="st20" d="M19.7,15.6h3.2H19.7z"/>
	<path class="st21" d="M9.8,16.9h3.8H9.8z"/>
</g>
</svg>
