<svg width="32" height="32" viewBox="0 0 32 32" fill="none" xmlns="http://www.w3.org/2000/svg">
<rect x="1" y="1" width="30" height="30" rx="7" stroke="#527BA9" stroke-width="2"/>
<path d="M13.2502 7.5H13.1466L13.0734 7.57322L11.3133 9.33333H9.5835C8.78785 9.33333 8.02478 9.6494 7.46218 10.212C6.89957 10.7746 6.5835 11.5377 6.5835 12.3333V20.5833C6.5835 21.379 6.89957 22.142 7.46218 22.7047C8.02478 23.2673 8.78785 23.5833 9.5835 23.5833H21.5002C22.2958 23.5833 23.0589 23.2673 23.6215 22.7047C24.1841 22.142 24.5002 21.379 24.5002 20.5833V12.3333C24.5002 11.5377 24.1841 10.7746 23.6215 10.212C23.0589 9.6494 22.2958 9.33333 21.5002 9.33333H19.7704L18.0103 7.57322L17.937 7.5H17.8335H13.2502ZM11.7963 10.75H11.8999L11.9731 10.6768L13.7332 8.91667H17.3504L19.1106 10.6768L19.1838 10.75H19.2873H21.5002C21.9201 10.75 22.3228 10.9168 22.6197 11.2137C22.9167 11.5107 23.0835 11.9134 23.0835 12.3333V20.5833C23.0835 21.0033 22.9167 21.406 22.6197 21.7029C22.3228 21.9999 21.9201 22.1667 21.5002 22.1667H9.5835C9.16357 22.1667 8.76084 21.9999 8.46391 21.7029C8.16698 21.406 8.00016 21.0033 8.00016 20.5833V12.3333C8.00016 11.9134 8.16698 11.5107 8.46391 11.2137C8.76084 10.9168 9.16357 10.75 9.5835 10.75H11.7963ZM18.6354 13.3647C17.8149 12.5443 16.7022 12.0833 15.5418 12.0833C14.3815 12.0833 13.2687 12.5443 12.4482 13.3647C11.6278 14.1852 11.1668 15.298 11.1668 16.4583C11.1668 17.6187 11.6278 18.7315 12.4482 19.5519C13.2687 20.3724 14.3815 20.8333 15.5418 20.8333C16.7022 20.8333 17.8149 20.3724 18.6354 19.5519C19.4559 18.7315 19.9168 17.6187 19.9168 16.4583C19.9168 15.298 19.4559 14.1852 18.6354 13.3647ZM13.45 14.3665C14.0048 13.8117 14.7572 13.5 15.5418 13.5C16.3264 13.5 17.0789 13.8117 17.6337 14.3665C18.1885 14.9213 18.5002 15.6737 18.5002 16.4583C18.5002 17.2429 18.1885 17.9954 17.6337 18.5502C17.0789 19.105 16.3264 19.4167 15.5418 19.4167C14.7572 19.4167 14.0048 19.105 13.45 18.5502C12.8952 17.9954 12.5835 17.2429 12.5835 16.4583C12.5835 15.6737 12.8952 14.9213 13.45 14.3665Z" fill="#527BA9" stroke="#527BA9" stroke-width="0.5"/>
</svg>
