<svg width="32" height="32" viewBox="0 0 32 32" fill="none" xmlns="http://www.w3.org/2000/svg">
<rect x="1" y="1" width="30" height="30" rx="7" stroke="#527BA9" stroke-width="2"/>
<path d="M21.1167 19.6V17.5369L24.9566 21.3768L25.3833 21.8036V21.2V10.5333V9.92978L24.9566 10.3566L21.1167 14.1964V12.1333C21.1167 11.5012 20.8656 10.895 20.4186 10.4481C19.9716 10.0011 19.3654 9.75 18.7333 9.75H9.13333C8.50123 9.75 7.89502 10.0011 7.44806 10.4481C7.0011 10.895 6.75 11.5012 6.75 12.1333V19.6C6.75 20.2321 7.0011 20.8383 7.44806 21.2853C7.89502 21.7322 8.50123 21.9833 9.13333 21.9833H18.7333C19.3654 21.9833 19.9716 21.7322 20.4186 21.2853C20.8656 20.8383 21.1167 20.2321 21.1167 19.6ZM8.55586 11.5559C8.70902 11.4027 8.91674 11.3167 9.13333 11.3167H18.7333C18.9499 11.3167 19.1576 11.4027 19.3108 11.5559C19.464 11.709 19.55 11.9167 19.55 12.1333V19.6C19.55 19.8166 19.464 20.0243 19.3108 20.1775C19.1576 20.3306 18.9499 20.4167 18.7333 20.4167H9.13333C8.91674 20.4167 8.70902 20.3306 8.55586 20.1775C8.40271 20.0243 8.31667 19.8166 8.31667 19.6V12.1333C8.31667 11.9167 8.40271 11.709 8.55586 11.5559ZM23.8167 18.0215L21.6618 15.8667L23.8167 13.7118V18.0215Z" fill="#527BA9" stroke="#527BA9" stroke-width="0.5"/>
</svg>
